<svg xmlns="http://www.w3.org/2000/svg" xmlns:xlink="http://www.w3.org/1999/xlink" width="548" height="535" viewBox="0 0 548 535">
    <defs>
        <path id="24xskpctoa" d="M0.001 0.938L547.604 0.938 547.604 479.972 0.001 479.972z"/>
        <path id="t5ga9o1a9c" d="M0 535L548 535 548 0 0 0z"/>
    </defs>
    <g fill="none" fill-rule="evenodd">
        <g>
            <g>
                <g transform="translate(-742 -191) translate(150 190) translate(592 1)">
                    <g transform="translate(0 55)">
                        <mask id="iptbpga2eb" fill="#fff">
                            <use xlink:href="#24xskpctoa"/>
                        </mask>
                        <path fill="#FDE6D6" d="M513.778 262.25c-1.697 2.724-3.388 5.402-5.192 8.069-15.782 23.695-35.368 46.455-57.057 67.376-.982.971-2.01 1.953-3.033 2.924-3.09 2.93-6.277 5.863-9.464 8.685-5.496 5.04-11.156 9.918-16.913 14.594-3.033 2.57-6.164 5.093-9.253 7.554-35.877 28.372-74.227 53.193-112.017 71.893-11.715 5.864-23.436 11.1-35.003 15.623-60.357 23.9-116.54 29.502-155.3 5.806-12.343-7.502-22.882-17.986-31.261-31.804-1.337-2.215-2.673-4.425-4.01-6.63-12.384-20.714-24.213-41.522-34.597-62.442-2.468-4.882-4.776-9.707-7.038-14.594-37.681-80.938-52.029-162.852 1.383-243.43 20.769-31.342 54.857-55.751 95.772-73.023 11.674-4.98 23.853-9.302 36.504-13.053 6.22-1.953 12.487-3.649 18.913-5.185 8.076-2.056 16.296-3.854 24.624-5.401 6.38-1.228 12.749-2.307 19.174-3.238 2.674-.354 5.347-.714 8.02-1.079 18.97-2.41 38.195-3.751 57.324-3.9 2.514-.057 5.033-.057 7.505-.057 11.567.057 23.026.514 34.335 1.444 3.033.206 6.066.463 9.1.817 57.73 5.607 110.679 22.15 146.664 49.596 7.865 6.012 14.913 12.482 21.025 19.528 1.136 1.284 2.216 2.57 3.239 3.9.36.411.673.822 1.028 1.239 7.454 9.347 13.417 19.013 17.895 28.88 22.876 49.796 9.505 104.726-22.367 155.909" mask="url(#iptbpga2eb)"/>
                    </g>
                    <path fill="#7FA6B2" d="M397.263 467.224c-13.862 14.568-23.733 35.4-8.822 47.742 16.652 13.78 51 10.58 68.757-15.418 11.35-16.607 17.357-42.863 4.784-57.59-10.764-12.61-47.712 7.391-64.719 25.266" opacity=".397"/>
                    <path fill="#D8D5DB" d="M195.694 463.458c-3.443.15-6.937.257-10.329.257-.36 0-.616.304-.616.668 0 .304.256.617.616.617 3.443 0 6.886-.108 10.38-.257.36 0 .618-.313.618-.668-.052-.308-.36-.617-.669-.617m-20.607.103c-3.494-.103-6.989-.308-10.278-.514-.462-.051-.668.206-.719.56 0 .365.257.674.617.725 3.34.206 6.834.411 10.329.514.36 0 .668-.257.668-.622 0-.355-.257-.663-.617-.663m41.163-1.593c-3.443.355-6.886.668-10.278.925-.36 0-.616.303-.616.668.051.36.308.617.668.617h.051c3.392-.257 6.835-.57 10.278-.925.36-.057.617-.36.617-.725-.052-.354-.36-.616-.72-.56m-61.718.052c-3.392-.365-6.835-.874-10.175-1.444-.36-.047-.669.159-.771.519-.052.354.205.668.565.719 3.34.617 6.783 1.08 10.226 1.49h.103c.309 0 .565-.205.617-.57.051-.355-.206-.668-.565-.714m82.171-2.775c-3.494.508-6.886 1.027-10.226 1.49-.36.046-.617.36-.566.714.052.314.36.57.668.57h.052c3.34-.462 6.783-.98 10.278-1.541.308-.051.565-.36.514-.725-.052-.354-.36-.56-.72-.508m-102.419-.72c-3.391-.77-6.732-1.644-9.97-2.57-.36-.102-.719.052-.822.412-.102.355.103.72.463.817 3.135.874 6.32 1.752 9.558 2.523.155.046.309.046.463.103h.154c.103 0 .206-.057.308-.103l.052-.051c.154-.052.205-.206.257-.365.051-.303-.154-.663-.463-.766m122.667-3.134c-3.34.714-6.784 1.438-10.021 2.055h-.103c-.36.052-.565.355-.514.72.051.303.36.508.668.508h.103c2.312-.41 4.676-.873 7.04-1.382 1.028-.206 2.056-.411 3.083-.668.36-.051.566-.411.514-.77-.102-.31-.41-.566-.77-.463m20.041-4.887c-3.237.873-6.577 1.747-9.97 2.57-.359.107-.564.415-.462.775.052.303.309.509.617.509.051 0 .103 0 .154-.046 3.392-.823 6.784-1.696 10.021-2.524.308-.097.514-.457.463-.822-.103-.303-.463-.508-.823-.462m-162.441 2.158c-1.13-.411-2.21-.822-3.34-1.285-2.108-.822-4.112-1.742-6.116-2.667-.308-.154-.72 0-.874.304-.154.313 0 .724.309.873 2.158 1.033 4.42 1.953 6.68 2.883.925.411 1.902.766 2.878 1.13h.257c.257 0 .514-.159.617-.41.103-.309-.052-.669-.411-.828m182.226-7.914c-.668.206-1.336.463-2.055.668-2.518.776-5.14 1.599-7.76 2.364-.36.108-.565.411-.463.776.103.309.36.458.617.458h.206c2.57-.766 5.19-1.537 7.657-2.313.77-.257 1.49-.462 2.21-.714.308-.103.513-.463.41-.827-.102-.304-.462-.51-.822-.412m-200.83-.765l-.359-.257c-2.878-1.645-5.653-3.392-8.325-5.242-.257-.205-.668-.102-.874.206-.205.252-.102.668.155.873 2.672 1.794 5.498 3.598 8.376 5.293l.411.257c.103.047.206.047.308.047.257 0 .463-.098.566-.304.205-.313.051-.724-.257-.873m220.357-5.863c-3.237 1.187-6.526 2.317-9.712 3.442-.36.108-.514.468-.411.776.102.304.308.458.616.458.052 0 .103 0 .206-.047 3.237-1.079 6.475-2.266 9.712-3.442.36-.108.514-.463.411-.823-.154-.364-.565-.514-.822-.364m20.042-7.19c-.154-.36-.514-.519-.822-.36-3.135 1.285-6.372 2.616-9.61 3.855-.308.154-.462.509-.36.873.103.252.36.411.617.411.051 0 .154-.05.257-.05 3.237-1.286 6.475-2.622 9.558-3.906.36-.154.514-.52.36-.823m-257.306 1.434c-1.182-.92-2.364-1.896-3.443-2.826-1.49-1.285-2.878-2.616-4.266-3.9-.257-.257-.668-.257-.925 0-.257.251-.257.668 0 .92 1.645 1.546 3.34 3.088 5.14 4.578.873.766 1.746 1.542 2.671 2.256.103.108.257.16.412.16.205 0 .36-.104.513-.258.206-.257.155-.668-.102-.93m276.217-9.866c-.154-.355-.565-.463-.873-.303-2.98 1.382-6.013 2.826-9.405 4.316-.308.103-.462.514-.308.822.103.257.36.412.565.412.103 0 .206-.052.257-.108 3.392-1.49 6.475-2.873 9.456-4.317.308-.149.463-.509.308-.822M64.241 418.18c-2.262-2.569-4.42-5.287-6.373-8.01-.205-.314-.616-.36-.925-.155-.257.206-.308.617-.103.874 1.8 2.569 3.803 5.087 5.859 7.497.205.21.36.462.565.668.103.108.308.206.463.206.154 0 .308-.047.462-.15.206-.205.257-.467.154-.724 0-.098-.051-.154-.102-.206m309.466-4.979c-.154-.308-.565-.411-.874-.257-2.929 1.588-6.063 3.186-9.147 4.728-.308.154-.41.462-.308.714-.052.051 0 .108 0 .16.103.205.36.359.565.359.103 0 .206-.057.308-.103.257-.16.566-.257.823-.416 2.878-1.382 5.653-2.873 8.376-4.311.309-.16.411-.57.257-.874m17.986-10.123c-.154-.314-.565-.411-.873-.262-.566.313-1.08.673-1.645.981-2.364 1.439-4.779 2.821-7.297 4.214-.308.149-.411.56-.206.874.103.205.309.303.566.303.103 0 .205 0 .308-.047 3.032-1.747 6.064-3.494 8.942-5.19.051-.051.103-.108.154-.154.206-.205.206-.462.051-.72m-339.375-1.546c-1.747-2.924-3.34-6.012-4.728-9.09-.154-.309-.565-.463-.873-.309-.309.15-.463.514-.309.874 1.44 3.083 3.032 6.218 4.78 9.198.102.206.308.309.565.309.103 0 .205-.052.308-.103.309-.154.411-.565.257-.879m356.9-9.347c0-.052-.052-.108-.052-.154-.206-.309-.617-.365-.874-.206-.205.103-.36.252-.565.36-1.439.971-2.98 2.004-4.471 2.924-1.182.822-2.415 1.598-3.597 2.369-.309.149-.411.565-.206.873.103.206.309.309.514.309.103 0 .257-.052.36-.103 1.798-1.136 3.546-2.261 5.293-3.448 1.13-.715 2.261-1.434 3.392-2.205.205-.16.308-.462.205-.72m16.753-12.127c-.205-.308-.617-.364-.874-.159-2.723 2.06-5.55 4.116-8.325 6.12-.308.206-.36.566-.154.874.154.154.309.252.514.252.154 0 .257 0 .411-.098 2.775-2.01 5.602-4.06 8.325-6.12.309-.206.36-.617.103-.869M40.704 373.12c-.103-.36-.462-.565-.822-.462-.308.103-.514.462-.463.765.925 3.397 1.953 6.737 3.084 9.923.103.309.308.463.617.463.05 0 .102 0 .205-.057.308-.097.514-.462.36-.817-1.13-3.186-2.107-6.48-2.98-9.815m401.35-6.12c-.257-.252-.668-.252-.925-.046-2.518 2.158-5.139 4.363-7.914 6.629-.257.205-.308.616-.103.873.154.154.309.252.514.252.154 0 .257-.046.411-.154 2.775-2.205 5.447-4.466 7.914-6.624.308-.262.308-.616.103-.93m-405-14.131c0-.304-.308-.617-.667-.56-.36.05-.617.354-.566.719.36 3.49.822 6.932 1.388 10.277.051.304.36.51.668.51h.103c.36-.047.565-.356.513-.715-.565-3.345-1.079-6.732-1.438-10.231m420.107.108c-.257-.263-.668-.263-.925 0-2.364 2.363-4.882 4.779-7.4 7.142-.257.206-.308.617-.051.874.103.154.308.205.462.205.155 0 .309-.05.463-.159 2.518-2.364 5.036-4.774 7.451-7.189.257-.257.257-.668 0-.873m13.927-15.267c-.257-.257-.668-.206-.925.056-2.107 2.57-4.42 5.19-6.783 7.76-.257.256-.206.668.05.92.104.107.258.159.412.159.206 0 .36-.108.463-.206 2.415-2.62 4.727-5.247 6.886-7.816.205-.257.154-.668-.103-.873m-434.805-.766c0-1.49 0-3.032.051-4.579 0-.354-.257-.668-.617-.668s-.668.262-.668.617c-.051 1.542-.051 3.088-.051 4.63 0 1.953.051 3.854.103 5.755 0 .309.308.617.616.617h.052c.36-.057.617-.308.617-.673-.052-1.897-.103-3.798-.103-5.7m447.241-15.672c-.308-.206-.668-.154-.873.149-1.902 2.775-3.957 5.601-6.013 8.325-.257.313-.154.724.103.93.103.051.257.102.41.102.155 0 .36-.051.515-.256 2.055-2.724 4.11-5.55 6.012-8.377.206-.313.154-.724-.154-.873m-446.06-10.128c-.41-.098-.667.159-.719.519-.462 3.494-.822 6.937-1.13 10.328 0 .36.257.668.616.668h.052c.308 0 .616-.257.616-.57.309-3.386.668-6.83 1.131-10.22.051-.36-.206-.725-.565-.725m456.594-7.652c-.308-.103-.668 0-.874.308-1.49 2.93-3.186 5.961-4.984 8.942-.206.303-.103.72.205.925.103.046.206.046.308.046.257 0 .463-.098.566-.303 1.85-3.032 3.546-6.064 5.087-9.044.154-.314 0-.725-.308-.874M41.167 290.793c-.36-.046-.668.16-.771.52-.72 3.39-1.439 6.777-2.056 10.123-.051.36.206.668.514.77h.154c.309 0 .566-.205.617-.514.617-3.34 1.285-6.731 2.056-10.123.051-.365-.155-.668-.514-.776m461.013-6.264c-.36-.103-.719.046-.822.411-1.079 3.135-2.364 6.372-3.751 9.558-.154.355 0 .72.36.874.05 0 .154.051.256.051.206 0 .463-.154.566-.41 1.387-3.238 2.672-6.476 3.751-9.662.154-.313-.051-.668-.36-.822M46.511 270.86c-.308-.102-.668.103-.77.458-1.028 3.294-2.005 6.629-2.878 9.922-.052.355.154.72.462.766.051.052.103.052.206.052.257 0 .514-.2.616-.463.823-3.284 1.799-6.629 2.827-9.912.102-.365-.103-.72-.463-.823m461.117-6.217c-.36-.103-.668.154-.771.457-.72 3.294-1.593 6.629-2.518 10.025-.052.309.103.663.462.771.052 0 .103.052.154.052.309 0 .566-.206.617-.514.925-3.34 1.799-6.732 2.57-10.02.051-.36-.155-.725-.514-.771m-454.385-13.31c-.36-.108-.72.047-.822.36-1.233 3.237-2.415 6.526-3.494 9.758-.155.314.05.668.36.828h.205c.308 0 .514-.16.616-.411 1.131-3.238 2.313-6.527 3.495-9.713.103-.313-.051-.724-.36-.822m458.085-7.04c-.309-.051-.668.206-.72.566-.462 3.391-1.027 6.777-1.644 10.169-.052.365.154.668.514.776h.103c.308 0 .565-.206.668-.52.616-3.442 1.182-6.885 1.644-10.22 0-.36-.206-.724-.565-.77M61.054 232.216c-.308-.154-.668 0-.822.355-1.387 3.14-2.775 6.326-4.06 9.512-.102.303.052.72.36.822.103.051.154.051.257.051.257 0 .463-.154.565-.41 1.285-3.14 2.673-6.327 4.06-9.456.154-.36 0-.725-.36-.874m452.072-8.478c-.308.046-.616.251-.668.616-.154 3.443-.36 6.886-.668 10.278-.051.36.206.668.566.714h.05c.31 0 .618-.252.618-.617.36-3.386.565-6.83.72-10.329.05-.303-.258-.616-.618-.662M69.945 213.564c-.309-.154-.72-.057-.874.257-1.542 3.083-3.083 6.218-4.522 9.296-.154.365 0 .724.308.873.103.057.154.057.257.057.257 0 .463-.103.565-.36 1.49-3.088 3.032-6.218 4.574-9.25.154-.36 0-.724-.308-.873m443.798-9.82c0-.355-.308-.612-.668-.612-.36 0-.617.309-.617.668.154 3.392.257 6.835.257 10.278 0 .36.309.668.617.668.36 0 .668-.308.668-.668 0-3.443-.103-6.937-.257-10.334M79.71 195.322c-.309-.155-.72-.052-.874.257-1.747 3.026-3.392 6.115-4.985 9.095-.154.308-.051.668.257.822.103.052.206.103.309.103.205 0 .462-.103.565-.36 1.593-2.929 3.237-6.012 4.985-9.044.154-.308.051-.668-.257-.873m432.081-12.23c-.051-.36-.36-.617-.72-.514-.359.051-.564.36-.513.714.462 3.397.874 6.84 1.182 10.231.051.36.308.565.668.565h.051c.36 0 .617-.308.566-.668-.309-3.443-.72-6.886-1.234-10.328m-421.546-5.499c-.257-.205-.669-.103-.874.206-1.799 2.924-3.597 5.858-5.345 8.838-.205.309-.102.668.206.874.103.051.206.103.308.103.257 0 .463-.103.566-.309 1.747-2.98 3.545-5.91 5.344-8.838.206-.314.103-.668-.205-.874m419.799-5.087h-.051c-.566-3.238-1.336-6.475-2.107-9.769-.052-.354-.411-.56-.771-.457-.309.051-.565.41-.463.77.771 3.135 1.44 6.27 2.056 9.404.051.206.103.458.154.668.051.309.308.514.617.514h.103c.36-.102.565-.41.513-.77 0-.103-.051-.257-.051-.36m-408.237-12.539c-.257-.205-.668-.154-.873.155l-.257.36c-1.902 2.826-3.855 5.703-5.705 8.576-.205.313-.154.724.155.93.102.051.256.103.36.103.205 0 .41-.103.513-.309 1.902-2.877 3.803-5.76 5.756-8.581l.257-.36c.154-.257.102-.673-.206-.874m402.687-9.558c-.77-2.569-1.593-5.087-2.415-7.553-.103-.36-.514-.514-.823-.412-.36.155-.513.514-.41.823.976 2.826 1.9 5.704 2.774 8.633.103.41.257.77.36 1.182.103.308.36.462.617.462h.205c.309-.103.514-.462.411-.822-.205-.771-.462-1.547-.719-2.313m-390.816-7.348c-.308-.205-.72-.154-.925.154-1.953 2.775-3.957 5.55-5.961 8.428-.206.257-.103.668.154.873.154.103.257.103.411.103.154 0 .36-.051.514-.262 1.953-2.821 3.957-5.647 5.961-8.422.206-.309.103-.668-.154-.874m12.23-16.65c-.308-.205-.667-.153-.924.104-2.056 2.718-4.111 5.498-6.167 8.324-.206.257-.103.668.154.874.103.103.257.154.36.154.205 0 .411-.108.565-.308 2.004-2.775 4.06-5.55 6.116-8.274.205-.257.154-.668-.103-.873m372.521 6.731c-.308-.77-.668-1.593-1.028-2.415-.154-.41-.36-.873-.565-1.336-.77-1.901-1.644-3.854-2.518-5.755-.154-.308-.514-.463-.874-.308-.308.154-.462.513-.308.822.617 1.33 1.233 2.672 1.799 4.008.41.873.77 1.747 1.079 2.57.41.873.77 1.695 1.079 2.569l.154.308c.103.257.308.411.565.411.103 0 .155 0 .257-.051.257-.103.463-.36.411-.668 0-.052 0-.108-.051-.155m-359.828-23.077c-.308-.2-.668-.15-.925.108-2.107 2.569-4.111 5.241-6.167 7.862-.051.102-.154.154-.205.257-.257.308-.206.719.102.925.103.102.257.154.36.154.154 0 .308-.052.411-.154l.103-.103c2.158-2.775 4.265-5.447 6.424-8.12.205-.256.154-.667-.103-.93m351.195 4.27c-.668-1.232-1.285-2.414-1.953-3.596-.977-1.85-2.004-3.649-3.084-5.447-.154-.309-.565-.411-.873-.257-.308.205-.411.565-.206.873 1.08 1.85 2.107 3.752 3.186 5.704.566 1.08 1.182 2.205 1.748 3.34.154.206.36.309.565.309.103 0 .206 0 .308-.057.309-.149.463-.56.309-.868M151.808 94.192c-.308-.205-.668-.154-.925.103-2.21 2.57-4.47 5.19-6.68 7.862-.206.308-.206.72.102.925.103.103.257.154.411.154.154 0 .36-.103.463-.257 2.21-2.672 4.47-5.293 6.68-7.862.206-.257.206-.668-.051-.925m327.504 2.261c-1.85-2.877-3.803-5.704-5.807-8.53-.205-.308-.616-.36-.925-.154-.257.205-.36.616-.154.925 2.004 2.775 4.008 5.6 5.858 8.479.103.154.309.257.514.257.103 0 .257 0 .36-.103.308-.154.36-.565.154-.874M165.58 78.827c-.257-.205-.668-.205-.873.052-2.364 2.466-4.677 5.036-6.99 7.605-.256.308-.205.668.052.925.103.103.257.154.411.154.154 0 .36-.051.463-.205 2.312-2.57 4.676-5.139 6.989-7.606.257-.256.205-.668-.052-.925m301.656.874c-2.159-2.723-4.42-5.396-6.68-7.965-.206-.257-.618-.257-.875-.051-.308.257-.308.668-.05.925 2.209 2.518 4.47 5.19 6.577 7.862.154.154.308.257.514.257.154 0 .257-.052.41-.154.258-.206.31-.617.104-.874m-287.164-15.57c-.257-.257-.617-.257-.874 0-2.415 2.312-4.882 4.779-7.348 7.292-.257.262-.257.673 0 .878.103.155.257.206.462.206.154 0 .309-.051.463-.206 2.415-2.466 4.882-4.933 7.297-7.245.257-.257.257-.668 0-.925m273.494.051c-2.415-2.466-4.882-4.933-7.4-7.245-.257-.257-.668-.257-.925 0-.205.257-.205.668.051.925 2.519 2.312 4.985 4.779 7.35 7.194.102.103.256.205.462.205.154 0 .308-.051.41-.205.258-.257.258-.668.052-.874m-258.18-13.926c-.257-.257-.668-.308-.925-.051-1.85 1.593-3.7 3.186-5.499 4.83-.462.36-.873.771-1.284 1.182-.309.257-.668.514-.977.822-.257.252-.257.668-.051.925.154.103.308.206.514.206.154 0 .308-.051.41-.154l1.697-1.542 1.85-1.696c1.387-1.238 2.775-2.415 4.162-3.597.257-.257.309-.668.103-.925m243.072-.205c-2.621-2.261-5.345-4.42-8.017-6.526-.308-.206-.72-.154-.925.102-.206.309-.154.72.103.92 2.723 2.06 5.396 4.27 8.016 6.48.103.103.257.154.412.154.154 0 .36-.102.462-.257.257-.257.206-.668-.051-.873M211.522 37.41c-.205-.257-.616-.36-.873-.103-2.724 1.953-5.448 4.11-8.223 6.27-.256.256-.308.616-.102.924.154.154.308.257.514.257.154 0 .257-.051.41-.154 2.724-2.21 5.448-4.317 8.172-6.27.257-.21.308-.616.102-.924m210.542 0c-2.826-2.004-5.704-3.906-8.633-5.756-.257-.154-.668-.102-.874.206-.205.308-.102.72.206.873 2.878 1.85 5.756 3.752 8.582 5.704.103.103.257.103.36.103.205 0 .41-.051.514-.257.205-.308.154-.668-.155-.873M228.686 25.899c-.205-.257-.616-.36-.873-.206-2.93 1.799-5.859 3.649-8.736 5.602-.309.205-.36.616-.155.925.103.154.309.257.514.257.154 0 .257-.052.36-.103 2.878-1.958 5.756-3.803 8.685-5.55.308-.206.36-.617.205-.925m175.906.462c-3.032-1.695-6.115-3.391-9.147-4.938-.309-.149-.72 0-.874.314-.154.308 0 .668.309.868 3.031 1.547 6.063 3.14 9.044 4.836.103.102.206.102.308.102.257 0 .463-.102.566-.308.205-.308.102-.72-.206-.874M246.827 16.135c-.154-.36-.514-.462-.874-.308-3.032 1.439-6.166 3.027-9.198 4.676-.309.206-.412.566-.257.874.102.257.36.36.565.36.103 0 .205-.052.308-.103 3.032-1.644 6.116-3.186 9.148-4.676.308-.154.462-.514.308-.823m139.265.823c-3.135-1.388-6.32-2.775-9.507-4.06-.308-.103-.72.051-.822.36-.154.354 0 .72.36.873 3.186 1.234 6.372 2.621 9.455 4.009.103.051.154.051.257.051.257 0 .514-.154.617-.36.154-.365 0-.72-.36-.873m-120.92-8.942c-3.237 1.08-6.526 2.313-9.712 3.597-.36.155-.514.514-.36.817.103.263.36.417.566.417.103 0 .205 0 .257-.052 3.186-1.284 6.423-2.518 9.661-3.597.308-.103.514-.462.36-.77-.103-.36-.463-.514-.771-.412m101.7 1.285c-3.29-1.13-6.579-2.158-9.867-3.083-.36-.103-.72.103-.823.462-.102.309.103.668.463.771 3.237.925 6.578 1.953 9.815 3.083h.206c.257 0 .514-.154.616-.41.103-.366-.05-.72-.41-.823m-81.71-6.629c-3.391.663-6.783 1.439-10.072 2.364-.36.051-.565.411-.463.77.052.258.309.463.617.463h.154c3.29-.873 6.68-1.65 10.021-2.312.309-.052.566-.411.514-.771-.103-.308-.411-.565-.77-.514m61.77 1.028c-3.392-.72-6.836-1.388-10.176-1.901-.36-.052-.72.205-.77.513-.052.36.205.72.565.771 3.34.514 6.732 1.13 10.123 1.85.052.052.103.052.103.052.308 0 .565-.206.668-.514.052-.36-.154-.668-.514-.771M305.77.154h-.051c-3.443.206-6.938.514-10.33.925-.359.052-.616.36-.565.72.052.308.309.565.669.565h.05c3.393-.411 6.836-.72 10.279-.925.308 0 .616-.308.565-.673 0-.304-.308-.612-.617-.612m20.659.411c-3.392-.308-6.886-.514-10.33-.565-.36 0-.667.257-.667.617s.257.668.616.668c3.443.051 6.886.257 10.278.565h.052c.36 0 .616-.257.668-.617 0-.365-.257-.668-.617-.668"/>
                    <path fill="#FFF" d="M511.359 139.078l-6.667 11.628-.871 1.492-9.647 16.721-2.097 3.705-61.846 107.429-10.257 17.802-10.256-17.802-36.667-63.696-5.64-9.776-12.57-21.866-29.43-51.142h189.127l-3.179 5.505zM321 131l33.841 58.808 9.641 16.773 5.646 9.776 36.662 63.696L419.974 303l13.231-22.947 61.174-106.349 2.154-3.704 16.723-29.019 4.616-8.077.41-.67L519 131H321z"/>
                    <path fill="#D1CDD3" d="M351.956 393.17c.154.566-.103 1.393-.668 2.416-1.283 2.417-4.36 5.861-7.595 8.689-.672.57-1.34 1.131-2.008 1.594-1.951 1.594-3.851 2.833-5.34 3.29-5.238 1.748-27.885-1.234-33.38-4.216-.354-.205-.616-.41-.873-.668-2.254.154-5.597.206-9.654 0-1.849-.098-3.852-.257-6.009-.566-5.084-.565-10.886-1.748-17.152-3.753-3.08-.92-6.316-2.107-9.603-3.547-3.08-1.388-6.265-2.982-9.449-4.833-.77-.411-1.335-.925-2.002-1.331.616 4.73 1.232 9.403 1.9 14.03.205 1.285.41 2.57.565 3.804.565 3.65 1.13 7.255 1.746 10.797 2.413 13.933 5.186 27.043 8.524 38.765.308 1.234.668 2.473 1.027 3.65-1.078.154-2.157.314-3.184.463.257 1.182.463 2.421.668 3.65 2.568 13.881 4.52 31.001 5.957 48.584-60.289 23.907-116.418 29.51-155.138 5.81-12.325-7.506-22.852-17.994-31.222-31.824l-4.006-6.632c.257-7.25.565-13.368.822-17.532-.976-.103-1.49-.103-1.49-.103 0-8.38.36-19.382.925-32.08.051-.515.051-1.03.051-1.595.205-3.598.41-7.3.668-11.156.205-4.73.513-9.557.821-14.601.462-7.3.976-14.91 1.54-22.621-12.53-3.342-23.005-6.94-28.91-10.54-7.704-4.678-10.631-11.208-10.426-17.634-.102-1.285-.102-2.673.206-4.113 2.927-9.717 12.992-38.662 24.393-67.401l-12.633-4.319s36.923-65.859 58.594-80.357c.102-.051.154-.103.256-.154 7.652-7.095 18.693-11.67 35.229-13.521.102-13.727-.976-36.914-2.106-54.651-5.392-1.234-9.038-5.707-11.092-9.409-.257-.41-.514-.822-.668-1.182-.821-1.594-1.284-2.93-1.489-3.599-1.13-4.524-.051-8.277 2.157-10.694-.462-3.753-1.13-9.922-1.387-16.4-.513-11.928.154-24.986 5.546-26.169-.05-.154-.154-.257-.205-.36-1.386-4.267 1.13-8.997 1.233-9.151l2.26 1.182c0 .052-2.055 3.96-1.08 7.147 4.314-4.782 18.847-6.324 34.1-5.45.872 0 1.796.103 2.67.154 3.132.257 6.265.566 9.346 1.029 1.027.102 2.003.257 2.978.462.514.052 1.079.154 1.592.257 3.338.566 6.522 1.286 9.45 2.108 5.032 1.388 9.243 3.136 12.067 5.141.924.617 1.643 1.286 2.26 1.954 2.567 2.982 2.978 5.09 1.848 6.478-.667.771-1.746 1.337-3.184 1.748.617 4.319.873 8.072.976 11.516.308.823.616 1.697.925 2.57.256.772.513 1.595.77 2.417.051.052.103.052.154.103.308.257.616.463.924.72 1.13 1.028 2.157 2.313 2.927 4.01l-2.31 1.08c-.052-.103-.103-.155-.155-.257.617 2.622 1.182 5.346 1.592 8.225.617 4.268 1.284 8.535 1.952 12.7.205 1.593.41 3.187.616 4.73.462 3.187.873 6.323 1.13 9.305.103.925.205 1.8.205 2.673 1.079 13.573-.205 24.832-8.319 30.487-1.54 1.132-3.39 2.057-5.495 2.674-2.67.874-5.854 1.337-9.551 1.388.102 3.599.308 7.095.616 10.385.154 1.286.308 2.57.513 3.753.154 1.234.36 2.468.617 3.6 13.71 3.29 24.033 8.842 30.555 16.4.308.308.667.617.975.976 3.646 3.548 7.19 9.003 10.528 15.527 4.21 8.174 8.165 18.102 11.657 28.02.257.77.513 1.593.822 2.364.256.874.564 1.697.821 2.57 1.438 4.268 2.773 8.535 4.006 12.602.924 3.028 1.746 5.964 2.567 8.735 3.955 13.938 6.266 24.22 6.266 24.22l-6.266 1.486-2.567.617-1.849.468c.616 2.462 1.233 4.879 1.849 7.346.051.258.154.566.205.828.822 3.188 1.592 6.427 2.362 9.558 3.955 16.092 7.293 31.001 8.782 40.872 4.416 3.65 7.651 9.357 12.427 14.658 4.827 5.341 11.35 10.174 22.39 12.076.052 0 .052.052.103.052 4.319-3.393 12.325-7.398 17.203-8.89.668-.159 1.238-.313 1.746-.416.411-.103.776-.154 1.079-.154 2.059-.411 2.362-.257 3.594.514.463.36 1.079.823 2.054 1.388 4.006 2.365 8.217 4.576 11.863 6.735 4.52 2.627 8.062 5.141 9.09 7.815.102.16.154.36.205.514"/>
                    <path fill="#FFAD69" d="M367.853 377.448c-3.661-2.192-2.593-2.469-6.731-1.71-4.467.827-14.078 5.436-18.94 9.276-.052-.005-.088-.031-.14-.041-22.015-3.773-25.886-19.34-34.789-26.711C302.32 325.945 277.46 238 277.46 238L240 251.925c5.458 37.054 27.422 107.527 33.12 123.429.935 1.925 2.142 3.454 3.492 4.696 1.87 3.947 5.227 7.756 10.654 10.892 22.457 12.98 43.713 13.16 51.845 12.642.262.262.56.488.899.678 5.509 3.007 28.11 5.954 33.388 4.224 5.365-1.76 16.352-12.878 15.562-15.958-1.284-5.03-11.932-9.588-21.107-15.08"/>
                    <path fill="#377ADB" d="M243.356 214.706c-10.532 23.82-6.662 99.294-6.662 99.294L304 297.857s-32.873-145.985-60.644-83.15"/>
                    <path fill="#232323" d="M301 498.372c-11.697 5.864-23.404 11.101-34.951 15.624-60.254 23.898-116.346 29.5-155.049 5.807.565-22.253 1.334-45.432 1.95-55.968.103-1.233.206-2.312.257-3.186l20.735-.411h.923l.052-.052 112.193-2.204h.108l7.18-.16 7.185-.154L294.74 457c.364 1.542.718 3.186 1.026 4.836 2.156 10.484 3.85 23.07 5.235 36.536"/>
                    <path fill="#4D8DFF" d="M193.913 183.126c-40.424 1.33-54.09 14.946-61.059 38.495C124.938 248.359 111 409.857 111 463.82c0 0 120.98 8.557 188-2.408-21.015-70.832-23.285-198.185-23.707-236.13-.314-28.464-30.136-43.847-81.38-42.157"/>
                    <mask id="hr9bv3nlqd" fill="#fff">
                        <use xlink:href="#t5ga9o1a9c"/>
                    </mask>
                    <path fill="#232323" d="M229.029 116.234c4.004-3.02 24.91-.28 18.89-42.836-2.196-15.527-16.777-5.164-27.1-3.092-10.329 2.071-3.76 46.694-3.76 46.694l11.97-.766z" mask="url(#hr9bv3nlqd)"/>
                    <path fill="#FFAD69" d="M178 106c1.715 11.156 5.146 71.509 3.718 85.528-1.429 14.019 66.35 18.019 57.481 2.576-8.864-15.448-2.57-66.653-2.57-66.653L178 106z" mask="url(#hr9bv3nlqd)"/>
                    <path fill="#D88344" d="M183.022 108L237 127.87s-3.644 30.002-1.445 51.13c-41.16-3.2-51.723-55.463-52.415-65.527-.118-1.897-.174-3.726-.118-5.473" mask="url(#hr9bv3nlqd)"/>
                    <path fill="#FFAD69" d="M253.721 103.927c5.02 34.62 13.54 69.142-28.391 63.455-41.936-5.682-48.447-59.487-48.328-69.63.653-54.156 66.851-61.902 76.72 6.175" mask="url(#hr9bv3nlqd)"/>
                    <path fill="#232323" d="M249.545 66.03c-9.876-11.489-65.401-15.824-74.593-5.649-1.008-3.195 1.05-7.123 1.07-7.16L173.759 52c-.108.196-2.614 4.933-1.25 9.19.046.135.16.228.206.362-10.16 2.242-3.675 46.448-3.675 46.448l11.894-.763c3.978-3 17.786-24.124 20.827-36.871 21.744 3.686 60.338 10.268 47.785-4.335" mask="url(#hr9bv3nlqd)"/>
                    <path fill="#FFAD69" d="M244.114 379.132c-4.249.237-20.734 3.106-26.52 1.762-19.447-4.549-69.565-27.065-96.543-39.65 16.598-36.086 41.03-99.952 41.03-99.952L123.664 230c-17.827 33.077-42.449 102.935-47.407 119.146-.278 1.453-.299 2.818-.211 4.126-.175 6.414 2.757 12.961 10.457 17.66 21.355 13.027 101.917 25.668 124.23 28.136.411.834.956 1.592 1.841 2.091 5.457 3.07 30.29 5.368 35.397 6.275 6.404 1.133 25.841 2.781 25.003.175-1.374-4.27-8.58-29.615-28.86-28.477" mask="url(#hr9bv3nlqd)"/>
                    <path fill="#4D8DFF" d="M146.605 197.537C124.957 211.964 88 277.587 88 277.587L153.81 300s49.905-140.518-7.205-102.463" mask="url(#hr9bv3nlqd)"/>
                    <g fill="#FFF" fill-rule="nonzero" mask="url(#hr9bv3nlqd)">
                        <g>
                            <path d="M11.34 23.406L11.34 13.371 13.474 13.371 13.474 21.588 18.285 21.588 18.285 13.371 20.42 13.371 20.42 21.588 21.649 21.588 21.649 25.714 19.515 25.714 19.515 23.406zM25.507 22.221L27.475 15.429 30.928 15.429 30.928 22.629 29.132 22.629 29.132 15.836 27.164 22.595 23.711 22.595 23.711 15.429 25.507 15.429zM41.222 16.534c.709.728 1.046 1.629 1.046 2.668 0 1.074-.337 1.94-1.046 2.667-.708.728-1.586 1.109-2.665 1.143v2.702H36.7v-2.702c-1.046-.034-1.957-.415-2.665-1.143-.709-.727-1.046-1.628-1.046-2.667 0-1.074.337-1.94 1.046-2.668.708-.727 1.585-1.108 2.665-1.143v-3.048h1.856v3.048c1.08.035 1.957.416 2.665 1.143zm-6.31 2.668c0 .554.17 1.039.507 1.42.337.381.742.589 1.282.624v-4.088c-.506.035-.945.242-1.282.624-.337.415-.506.866-.506 1.42zm3.645-2.044v4.088c.506-.035.944-.243 1.282-.624.337-.381.506-.866.506-1.42 0-.554-.169-1.04-.506-1.42-.338-.382-.776-.59-1.282-.624zM48.196 15.429c.957 0 1.767.378 2.393 1.1.626.723.957 1.617.957 2.684 0 1.066-.331 1.96-.957 2.683-.626.722-1.436 1.1-2.393 1.1-.7 0-1.289-.206-1.767-.584-.516-.413-.847-.929-1.105-1.617v4.92H43.3V15.6h2.025v2.098c.22-.688.59-1.238 1.105-1.617.478-.447 1.067-.653 1.767-.653zm-.736 5.848c.552 0 1.03-.207 1.399-.585.368-.379.589-.86.589-1.445 0-.585-.184-1.066-.59-1.445-.404-.378-.846-.585-1.398-.585-.626 0-1.105.207-1.51.585-.405.379-.589.86-.589 1.445 0 .585.184 1.066.589 1.445.368.378.884.585 1.51.585zM53.745 22.46c-.803-.785-1.168-1.758-1.168-2.917 0-1.16.402-2.132 1.168-2.918.803-.785 1.788-1.196 2.956-1.196s2.153.411 2.956 1.196c.803.786 1.168 1.758 1.168 2.918 0 1.16-.401 2.132-1.168 2.917-.803.786-1.788 1.197-2.956 1.197s-2.153-.411-2.956-1.197zm.912-2.955c0 .636.183 1.16.584 1.571.402.412.876.636 1.46.636s1.058-.224 1.46-.636c.401-.411.584-.935.584-1.57 0-.636-.183-1.16-.584-1.571-.402-.412-.876-.636-1.46-.636s-1.058.224-1.46.636c-.365.448-.584.972-.584 1.57zM67.11 19.011c.63.069 1.111.274 1.445.58.333.308.517.717.517 1.195 0 .546-.258.99-.74 1.33-.481.342-1.11.513-1.924.513h-4.552v-7.2h4.182c.777 0 1.443.17 1.924.511.481.342.74.785.74 1.331 0 .41-.147.785-.407 1.092-.296.307-.666.512-1.184.648zm-1.184-2.047H63.78v1.297h2.146c.223 0 .408-.069.556-.17.148-.137.222-.274.222-.479 0-.17-.074-.34-.222-.443-.148-.103-.296-.205-.556-.205zm-2.109 4.13h2.517c.222 0 .407-.07.555-.172.148-.136.222-.273.222-.477 0-.17-.074-.342-.222-.444-.148-.102-.333-.17-.555-.17h-2.517v1.262zM71.27 22.46c-.802-.785-1.167-1.758-1.167-2.917 0-1.16.402-2.132 1.168-2.918.803-.785 1.788-1.196 2.956-1.196 1.167 0 2.153.411 2.955 1.196.803.786 1.169 1.758 1.169 2.918 0 1.16-.402 2.132-1.169 2.917-.802.786-1.788 1.197-2.955 1.197-1.204-.037-2.19-.411-2.956-1.197zm.913-2.955c0 .636.183 1.16.584 1.571.401.412.876.636 1.46.636s1.058-.224 1.46-.636c.401-.411.583-.935.583-1.57 0-.636-.182-1.16-.584-1.571-.4-.412-.875-.636-1.46-.636-.583 0-1.058.224-1.459.636-.401.448-.584.972-.584 1.57zM82.208 22.254l1.968-6.846h3.453v7.22h-1.796v-6.777l-1.968 6.778h-3.453v-7.187h1.796v6.812zm1.83-7.595c-.69 0-1.243-.204-1.692-.613-.414-.409-.656-.988-.656-1.703h1.52c0 .681.276 1.022.794 1.022.552 0 .828-.341.828-1.022h1.52c0 .715-.208 1.294-.657 1.703-.414.409-.967.613-1.657.613zM11.34 39.086L11.34 31.886 18.557 31.886 18.557 39.086 16.601 39.086 16.601 33.55 13.331 33.55 13.331 39.086zM25.515 31.886c.958 0 1.768.378 2.394 1.1.626.723.957 1.617.957 2.684 0 1.066-.331 1.96-.957 2.683-.626.722-1.436 1.1-2.394 1.1-.7 0-1.288-.206-1.767-.584-.515-.413-.847-.929-1.104-1.617v4.92h-2.025V32.022h2.025v2.099c.22-.688.589-1.239 1.104-1.617.479-.413 1.068-.62 1.767-.62zm-.736 5.848c.552 0 1.031-.207 1.4-.585.368-.378.588-.86.588-1.445 0-.585-.184-1.066-.589-1.445-.368-.378-.847-.585-1.399-.585-.626 0-1.104.207-1.51.585-.404.379-.589.86-.589 1.445 0 .585.185 1.067.59 1.445.368.378.883.585 1.51.585zM31.065 38.917c-.803-.785-1.168-1.757-1.168-2.917s.401-2.132 1.168-2.917c.802-.786 1.788-1.197 2.956-1.197 1.167 0 2.153.411 2.956 1.197.802.785 1.167 1.758 1.167 2.917 0 1.16-.401 2.132-1.167 2.917-.803.786-1.789 1.197-2.956 1.197-1.168 0-2.19-.411-2.956-1.197zm.912-2.954c0 .635.182 1.16.584 1.57.401.412.876.636 1.46.636.583 0 1.058-.224 1.46-.635.4-.412.583-.936.583-1.571 0-.636-.182-1.16-.584-1.571-.401-.412-.876-.636-1.46-.636-.583 0-1.058.224-1.46.636-.4.449-.583.972-.583 1.57zM44.072 31.886c.957 0 1.767.378 2.393 1.1.626.723.958 1.617.958 2.684 0 1.066-.332 1.96-.958 2.683-.626.722-1.436 1.1-2.393 1.1-.7 0-1.288-.206-1.767-.584-.516-.413-.847-.929-1.105-1.617v4.92h-2.025V32.022H41.2v2.099c.221-.688.59-1.239 1.105-1.617.515-.413 1.104-.62 1.767-.62zm-.736 5.848c.552 0 1.03-.207 1.399-.585.368-.378.59-.86.59-1.445 0-.585-.185-1.066-.59-1.445-.368-.378-.847-.585-1.4-.585-.625 0-1.104.207-1.509.585-.405.379-.589.86-.589 1.445 0 .585.184 1.067.59 1.445.404.378.883.585 1.509.585zM53.224 39.086h-3.74v-7.2h1.94v2.037h1.765c.882 0 1.587.238 2.117.714.529.475.81 1.087.81 1.868 0 .78-.281 1.392-.81 1.868-.46.475-1.165.713-2.082.713zm-1.764-3.498v1.834h1.552c.353 0 .635-.102.847-.272.212-.17.318-.408.318-.645 0-.238-.106-.476-.318-.646-.212-.17-.494-.271-.847-.271H51.46zm7.303 3.498h-1.94v-7.2h1.94v7.2zM65.049 35.469c.629.068 1.11.273 1.443.58.333.307.518.716.518 1.194 0 .546-.259.99-.74 1.33-.481.342-1.11.513-1.925.513h-4.551v-7.2h4.181c.778 0 1.444.17 1.925.512.481.34.74.784.74 1.33 0 .41-.148.785-.407 1.092-.296.342-.703.546-1.184.649zm-1.184-2.014h-2.147v1.297h2.147c.222 0 .406-.068.555-.17.147-.137.221-.274.221-.478 0-.171-.074-.342-.221-.444-.112-.136-.296-.205-.555-.205zm-2.11 4.095h2.516c.223 0 .407-.068.556-.17.148-.137.222-.273.222-.478 0-.17-.074-.341-.222-.444-.149-.102-.333-.17-.556-.17h-2.516v1.262z" transform="translate(164 248)"/>
                            <path d="M95.434 72H37.057c-2.53 0-4.567-2.05-4.567-4.593V55.395c0-1.377-1.089-2.473-2.458-2.473H4.566C2.037 52.922 0 50.873 0 48.33V4.593C0 2.049 2.037 0 4.566 0h90.868C97.963 0 100 2.049 100 4.593v62.814C100 69.951 97.963 72 95.434 72zM4.566 2.12c-1.37 0-2.459 1.095-2.459 2.473V48.33c0 1.378 1.09 2.473 2.46 2.473h25.465c2.529 0 4.566 2.049 4.566 4.592v12.012c0 1.378 1.089 2.473 2.459 2.473h58.377c1.37 0 2.459-1.095 2.459-2.473V4.593c0-1.378-1.089-2.473-2.46-2.473H4.567z" transform="translate(164 248)"/>
                            <path d="M87.629 51.429L54.639 51.429 54.639 49.371 85.546 49.371z" transform="translate(164 248)"/>
                            <path d="M85.076 34.971L87.039 34.971 90.722 43.446 88.413 43.446 87.194 40.786 87.27 51.429 84.742 51.429 84.767 40.786 83.701 43.446 81.443 43.446z" transform="translate(164 248)"/>
                        </g>
                    </g>
                    <path fill="#232323" d="M218.277 102.82c-.13 1.656.755 3.074 1.98 3.175 1.23.096 2.33-1.16 2.465-2.816.135-1.65-.755-3.073-1.985-3.174-1.225-.096-2.33 1.16-2.46 2.816M245.278 103.82c-.13 1.656.755 3.074 1.98 3.175 1.23.096 2.33-1.16 2.465-2.816.13-1.65-.76-3.073-1.985-3.174-1.225-.096-2.33 1.16-2.46 2.816M212.24 93L210 91.574c4.725-7.072 12.658-5.432 13-5.359l-.583 2.549c-.256-.052-6.484-1.295-10.177 4.236M252.582 96c-2.818-5.811-9.145-5.493-9.396-5.468l-.186-2.52c.34-.02 8.405-.49 12 6.933L252.582 96zM227.133 134c-4.404 0-12.874-1.213-18.133-9.696l2.23-1.304c6.375 10.282 17.811 8.407 18.296 8.32l.474 2.483c-.042.01-1.141.197-2.867.197" mask="url(#hr9bv3nlqd)"/>
                    <path fill="#D88344" d="M247 123L235 122.833 235.035 120.296 243.689 120.418 238.346 101.715 240.713 101z" mask="url(#hr9bv3nlqd)"/>
                    <path fill="#FFAD69" d="M187.815 110.789c3.763 8.425 8.482 16.577-3.343 18.09-11.825 1.517-17.326-11.664-17.995-14.248-3.579-13.781 13.93-20.41 21.338-3.842" mask="url(#hr9bv3nlqd)"/>
                    <path fill="#FFF" d="M509.693 419H17.307c-4.019 0-7.307-3.375-7.307-7.5s3.288-7.5 7.307-7.5h492.386c4.019 0 7.307 3.375 7.307 7.5s-3.288 7.5-7.307 7.5" mask="url(#hr9bv3nlqd)"/>
                    <path fill="#D8D5DB" d="M199.71 419H14.29c-4.01 0-7.29-3.375-7.29-7.5s3.28-7.5 7.29-7.5h185.42c4.01 0 7.29 3.375 7.29 7.5s-3.28 7.5-7.29 7.5" mask="url(#hr9bv3nlqd)"/>
                    <path fill="#151515" d="M485.655 393H332.82c-5.834 0-9.706-4.745-8.645-10.594l16.668-91.812C341.908 284.74 347.5 280 353.345 280h152.83c5.839 0 9.71 4.74 8.65 10.594l-16.668 91.812C497.092 388.255 491.5 393 485.655 393" mask="url(#hr9bv3nlqd)"/>
                    <path fill="#151515" d="M489.655 393H336.82c-5.834 0-9.706-4.745-8.645-10.594l16.668-91.812C345.903 284.74 351.5 280 357.339 280h152.83c5.845 0 9.717 4.74 8.656 10.594l-16.673 91.812c-1.06 5.849-6.657 10.594-12.497 10.594" mask="url(#hr9bv3nlqd)"/>
                    <path fill="#FFF" d="M438.155 354.439h-37.057l6.747-36.878h37.067l-6.757 36.878zM405.68 315L398 357h42.268L448 315h-42.32z" mask="url(#hr9bv3nlqd)"/>
                    <path fill="#151515" d="M306 395c0 4.948 3.903 9 8.674 9h159.652c4.771 0 8.674-4.052 8.674-9H306z" mask="url(#hr9bv3nlqd)"/>
                    <path fill="#151515" d="M260 395c0 4.948 3.891 9 8.656 9h62.683c4.764 0 8.661-4.052 8.661-9h-80z" mask="url(#hr9bv3nlqd)"/>
                    <path fill="#377ADB" d="M434.997 111c-5.521 0-9.997 4.48-9.997 10h20c0-5.52-4.476-10-10.003-10" mask="url(#hr9bv3nlqd)"/>
                    <path fill="#4D8DFF" d="M434 111v95.223c0 5.424-4.393 9.777-9.809 9.777H353v-95.172c0-5.429 4.387-9.828 9.768-9.828H434z" mask="url(#hr9bv3nlqd)"/>
                    <path fill="#6EA9FF" d="M416.236 206.01L345 206c0 5.523 4.388 10 9.8 10l71.2-.016c-5.412 0-9.764-4.44-9.764-9.973" mask="url(#hr9bv3nlqd)"/>
                    <path fill="#FFF" d="M365 127.75L425 127.75 425 125.25 365 125.25zM365 136.75L425 136.75 425 134.25 365 134.25zM365 146.75L425 146.75 425 144.25 365 144.25zM365 156.75L425 156.75 425 154.25 365 154.25zM365 165.75L425 165.75 425 163.25 365 163.25zM365 175.75L425 175.75 425 173.25 365 173.25zM365 185.75L425 185.75 425 183.25 365 183.25zM365 195.75L425 195.75 425 193.25 365 193.25z" mask="url(#hr9bv3nlqd)"/>
                    <path fill="#FFC84D" d="M534.75 162.751c-13.665 13.665-35.83 13.665-49.5 0-13.666-13.67-13.666-35.828 0-49.498 13.67-13.67 35.835-13.67 49.5 0 13.666 13.67 13.666 35.828 0 49.498" mask="url(#hr9bv3nlqd)"/>
                    <path fill="#151515" d="M510.188 138L538 165.63c-15.254 15.16-40.374 15.16-55.629 0-6.534-6.496-10.561-15.073-11.371-24.223L510.188 138z" mask="url(#hr9bv3nlqd)"/>
                    <path fill="#FFF" d="M510 137.526L471.263 142c-.511-4.332-.276-8.72.695-12.981.967-4.257 2.654-8.32 4.996-12.019L510 137.526z" mask="url(#hr9bv3nlqd)"/>
                    <path fill="#151515" d="M339.13 87h-29.26c-3.776 0-6.87-3.09-6.87-6.87V50.87c0-3.776 3.094-6.87 6.87-6.87h29.26c3.776 0 6.87 3.094 6.87 6.87v29.26c0 3.78-3.094 6.87-6.87 6.87" mask="url(#hr9bv3nlqd)"/>
                    <path fill="#FF4E4A" d="M330.13 96h-29.26c-3.776 0-6.87-3.09-6.87-6.87V59.87c0-3.776 3.094-6.87 6.87-6.87h29.26c3.776 0 6.87 3.094 6.87 6.87v29.26c0 3.78-3.094 6.87-6.87 6.87" mask="url(#hr9bv3nlqd)"/>
                </g>
            </g>
        </g>
    </g>
</svg>
