<svg xmlns="http://www.w3.org/2000/svg" xmlns:xlink="http://www.w3.org/1999/xlink" width="526" height="517" viewBox="0 0 526 517">
    <defs>
        <path id="qvbkdtgtia" d="M0.001 0.003L525.783 0.003 525.783 517 0.001 517z"/>
        <path id="s3qzhfcw8c" d="M0.689 0.619L368.713 0.619 368.713 497 0.689 497z"/>
    </defs>
    <g fill="none" fill-rule="evenodd">
        <g>
            <g>
                <g transform="translate(-764 -201) translate(764 201)">
                    <mask id="melxl3aohb" fill="#fff">
                        <use xlink:href="#qvbkdtgtia"/>
                    </mask>
                    <path fill="#FDE6D6" d="M461.718 493.599c-13.605 8.195-29.436 14.113-46.885 17.958-11.582 2.53-23.923 4.199-36.77 4.907-47.238 2.883-101.558-5.97-153.905-23.674-11.734-3.946-23.367-8.347-34.797-13.203-85.12-35.815-159.115-94.293-179.852-162.078-37.882-123.733 43.446-212.714 137.62-294.36 38.186-33.133 87.954-28.378 139.44-.404 12.038 6.526 24.126 14.316 36.214 23.168 45.367 33.337 90.28 81.848 128.212 135.773 74.45 105.876 117.541 247.72 10.723 311.913" mask="url(#melxl3aohb)"/>
                </g>
                <path fill="#E8E5EA" d="M421.127 95.779c-8.801-17.745-12.024-40.202 5.624-47.433 19.71-8.072 51.115 4.981 60.255 34.598 5.842 18.926 3.836 45.345-12.307 55.5-13.812 8.695-42.775-20.902-53.572-42.665" transform="translate(-764 -201) translate(764 201)"/>
                <path fill="#D8D5DB" d="M142.878 4.646h-.046c-3.387-.233-6.785-.36-10.086-.38-.355 0-.633-.283-.633-.633.005-.35.283-.633.633-.633h.005c3.332.02 6.754.147 10.172.38.35.025.608.33.587.679-.025.334-.303.587-.632.587zm-30.35.973c-.31 0-.582-.228-.628-.542-.05-.345.187-.669.537-.72 3.27-.476 6.683-.83 10.131-1.058.395-.066.654.243.674.593.025.344-.238.648-.587.668-3.418.228-6.796.583-10.036 1.049-.03.005-.06.01-.091.01zm50.471 1.535c-.04 0-.076-.005-.111-.01-3.327-.598-6.689-1.105-9.995-1.52-.35-.046-.598-.36-.552-.71.045-.344.334-.577.709-.546 3.331.415 6.714.932 10.06 1.53.34.06.573.39.512.734-.056.304-.324.522-.623.522zm-70.208 3.04c-.268 0-.517-.173-.603-.447-.106-.334.081-.688.416-.79 3.205-1.013 6.506-1.915 9.817-2.69.335-.08.684.132.76.471.08.34-.132.68-.471.76-3.281.77-6.557 1.667-9.727 2.665-.066.02-.126.03-.192.03zm89.996 1.397c-.056 0-.112-.005-.167-.02-3.291-.891-6.593-1.707-9.818-2.431-.344-.076-.557-.416-.481-.76.076-.34.395-.557.754-.476 3.246.729 6.568 1.55 9.879 2.441.334.096.537.441.44.78-.076.279-.329.466-.607.466zm19.377 6.029c-.07 0-.141-.01-.212-.036-3.17-1.12-6.406-2.188-9.606-3.186-.334-.107-.521-.461-.415-.79.102-.335.461-.527.79-.416 3.215.998 6.466 2.077 9.65 3.197.33.116.507.48.39.81-.09.258-.333.42-.597.42zm-128.123.197c-.228 0-.45-.127-.562-.35-.157-.308-.035-.688.279-.85 2.982-1.52 6.101-2.944 9.266-4.225.314-.142.688.025.82.35.132.324-.025.693-.35.825-3.129 1.266-6.212 2.675-9.164 4.18-.091.045-.193.07-.289.07zm147.04 7.143c-.081 0-.162-.015-.248-.05-3.099-1.318-6.253-2.605-9.383-3.815-.324-.127-.486-.497-.359-.821.132-.324.496-.476.82-.36 3.14 1.216 6.31 2.508 9.418 3.83.324.137.471.507.34.83-.107.239-.34.386-.588.386zM56.927 28.612c-.192 0-.375-.081-.501-.243-.213-.279-.162-.679.116-.892 2.659-2.046 5.469-4.012 8.35-5.83.299-.183.688-.096.876.197.187.3.096.69-.198.872-2.85 1.803-5.625 3.743-8.258 5.77-.111.086-.248.126-.385.126zm182.595 4.818c-.091 0-.188-.02-.279-.066-3.048-1.505-6.121-2.969-9.144-4.357-.314-.147-.456-.527-.31-.84.148-.32.522-.462.841-.315 3.028 1.393 6.117 2.867 9.175 4.372.314.157.44.537.289.85-.112.224-.34.356-.572.356zM42.137 42.426c-.152 0-.299-.05-.42-.162-.263-.228-.284-.628-.05-.891 2.242-2.528 4.632-4.985 7.108-7.295.253-.243.653-.228.891.025.243.259.228.659-.03.897-2.44 2.29-4.805 4.716-7.028 7.213-.122.142-.294.213-.47.213zm215.344.456c-.106 0-.207-.025-.308-.08-2.942-1.647-5.94-3.273-8.902-4.834-.309-.162-.43-.547-.268-.856.167-.309.552-.43.855-.268 2.978 1.57 5.98 3.201 8.932 4.853.304.172.415.557.243.86-.116.209-.329.325-.552.325zm17.469 10.344c-.111 0-.228-.03-.334-.096-2.886-1.803-5.798-3.571-8.654-5.263-.303-.178-.405-.568-.222-.866.172-.31.562-.406.866-.223 2.86 1.692 5.787 3.47 8.683 5.278.294.187.385.578.198.876-.117.188-.324.294-.537.294zM30.102 58.717c-.117 0-.228-.03-.335-.096-.293-.182-.39-.572-.207-.871 1.782-2.903 3.701-5.75 5.691-8.455.213-.278.608-.334.886-.131.284.207.34.602.132.881-1.97 2.68-3.864 5.491-5.63 8.368-.117.198-.325.304-.537.304zm261.81 5.664c-.126 0-.253-.04-.36-.112-2.804-1.94-5.635-3.844-8.405-5.668-.293-.193-.374-.583-.182-.876.193-.284.582-.37.876-.183 2.78 1.829 5.615 3.739 8.426 5.679.293.202.364.598.167.881-.127.178-.324.279-.522.279zm16.41 11.879c-.131 0-.263-.04-.38-.127-2.713-2.051-5.447-4.083-8.131-6.028-.284-.208-.344-.603-.142-.881.208-.29.603-.35.886-.142 2.689 1.945 5.433 3.981 8.152 6.043.279.208.33.608.122.887-.127.162-.314.248-.507.248zm-287.44.501c-.082 0-.163-.015-.244-.045-.324-.137-.476-.512-.34-.831 1.327-3.161 2.77-6.271 4.284-9.24.157-.314.537-.44.851-.278.314.157.436.542.279.85-1.504 2.949-2.932 6.029-4.249 9.16-.1.243-.334.384-.582.384zm303.344 12.123c-.141 0-.283-.046-.405-.142-2.552-2.123-5.2-4.276-7.873-6.398-.274-.218-.32-.613-.101-.887.222-.273.617-.314.886-.106 2.683 2.127 5.342 4.285 7.899 6.413.268.223.308.623.086.892-.127.152-.31.228-.492.228zm-309.963 7.04c-.06 0-.116-.004-.172-.02-.334-.096-.536-.445-.44-.785.921-3.297 1.934-6.57 3.017-9.72.117-.33.481-.517.806-.396.329.117.506.476.394.806-1.078 3.13-2.086 6.377-2.997 9.655-.076.278-.334.46-.608.46zm325.326 6.313c-.157 0-.304-.056-.426-.167-2.496-2.27-5.053-4.544-7.6-6.758-.263-.223-.288-.628-.06-.892.227-.268.627-.283.89-.06 2.558 2.218 5.115 4.498 7.621 6.772.258.238.278.639.04.897-.126.137-.293.208-.465.208zm-329.69 13.5c-.036 0-.071-.005-.107-.01-.344-.056-.577-.385-.516-.73.562-3.369 1.21-6.727 1.924-9.99.076-.339.41-.552.754-.486.34.076.557.416.482.755-.71 3.242-1.352 6.585-1.914 9.929-.051.309-.32.532-.623.532zm344.389.501c-.162 0-.325-.06-.446-.187-2.395-2.386-4.84-4.767-7.26-7.072-.254-.243-.264-.643-.021-.897.238-.248.643-.263.891-.02 2.43 2.315 4.881 4.701 7.281 7.092.248.248.248.649 0 .897-.121.126-.283.187-.445.187zm14.015 14.68c-.172 0-.34-.07-.466-.207-2.273-2.497-4.597-4.995-6.911-7.416-.238-.248-.228-.654.02-.892.258-.238.653-.238.896.02 2.324 2.427 4.653 4.93 6.932 7.437.238.258.218.658-.046.891-.116.112-.268.168-.425.168zm-360.85 4.955h-.05c-.35-.03-.608-.335-.583-.679.269-3.414.608-6.823 1.008-10.126.04-.345.324-.578.704-.552.349.04.592.354.552.704-.395 3.287-.735 6.676-1.003 10.07-.02.33-.299.583-.628.583zm374.116 10.41c-.182 0-.365-.081-.491-.233-2.107-2.574-4.299-5.182-6.522-7.756-.228-.263-.197-.663.071-.891.263-.233.663-.198.891.066 2.228 2.578 4.43 5.197 6.542 7.78.223.269.182.67-.091.892-.117.096-.258.142-.4.142zM6.633 156.15c-.35-.005-.633-.289-.633-.639.015-3.399.091-6.818.223-10.166.015-.345.283-.634.658-.608.35.015.623.309.608.658-.132 3.334-.208 6.738-.223 10.122 0 .35-.284.633-.633.633zm387.346 6.195c-.197 0-.39-.086-.511-.258-1.99-2.73-4.036-5.461-6.081-8.105-.213-.279-.162-.674.116-.892.274-.213.668-.167.886.117 2.056 2.654 4.107 5.395 6.102 8.135.202.284.141.679-.137.881-.117.087-.248.122-.375.122zM7.205 176.444c-.334 0-.613-.264-.633-.598-.202-3.434-.354-6.859-.445-10.162-.01-.35.263-.643.612-.653h.02c.34 0 .623.273.633.618.092 3.293.243 6.697.446 10.121.02.35-.248.649-.597.674h-.036zm398.192 2.68c-.208 0-.415-.102-.537-.294-1.782-2.812-3.655-5.659-5.564-8.46-.193-.289-.122-.684.167-.881.283-.198.683-.122.88.167 1.915 2.811 3.798 5.673 5.586 8.495.187.299.1.689-.193.876-.106.066-.223.097-.339.097zm10.248 17.517c-.223 0-.44-.122-.557-.335-1.58-2.938-3.245-5.906-4.957-8.83-.172-.298-.07-.683.228-.865.294-.183.689-.076.866.228 1.716 2.933 3.392 5.916 4.977 8.87.167.304.05.694-.258.856-.091.05-.198.076-.299.076zm-406.653.025c-.319 0-.592-.238-.627-.562-.4-3.41-.745-6.819-1.038-10.111-.03-.35.227-.659.572-.69.41-.035.658.229.688.573.289 3.288.638 6.682 1.033 10.086.04.344-.207.658-.557.699-.025.005-.045.005-.07.005zm415.509 18.226c-.243 0-.476-.141-.582-.38-1.337-3.085-2.76-6.18-4.223-9.194-.152-.314-.02-.694.294-.846.308-.157.688-.025.845.289 1.474 3.04 2.901 6.145 4.248 9.245.137.324-.01.694-.329.836-.08.03-.167.05-.253.05zm-412.658 1.875c-.304 0-.572-.223-.623-.532-.572-3.39-1.093-6.768-1.554-10.045-.05-.345.192-.67.537-.715.324-.055.663.188.714.537.46 3.268.982 6.636 1.549 10.015.06.345-.172.669-.517.73-.035.005-.07.01-.106.01zm419.807 17.101c-.268 0-.516-.167-.602-.435-1.008-3.151-2.127-6.358-3.332-9.544-.121-.33.04-.694.37-.816.324-.141.688.036.815.365 1.215 3.207 2.34 6.439 3.352 9.605.106.334-.076.694-.41.8-.066.02-.132.025-.193.025zM15.666 236.7c-.294 0-.552-.202-.618-.501-.709-3.283-1.392-6.636-2.025-9.96-.071-.344.157-.673.501-.74.334-.09.674.158.74.502.632 3.313 1.31 6.657 2.02 9.934.076.34-.142.679-.486.75-.04.01-.086.015-.132.015zm421.048 16.798c-.294 0-.562-.213-.618-.517-.628-3.227-1.377-6.54-2.233-9.847-.086-.34.117-.684.456-.77.329-.087.678.116.77.455.86 3.329 1.62 6.667 2.248 9.924.065.34-.157.674-.502.74-.04.01-.08.015-.121.015zM20.38 256.44c-.284 0-.537-.192-.613-.476-.855-3.273-1.68-6.56-2.466-9.853-.08-.344.127-.684.466-.765.334-.08.684.127.765.466.79 3.288 1.605 6.565 2.46 9.833.087.34-.11.684-.45.775-.056.01-.111.02-.162.02zM439.22 273.6c-.334 0-.612-.264-.633-.603-.172-3.308-.47-6.692-.896-10.05-.046-.345.203-.664.547-.705.38-.03.663.203.709.547.425 3.39.734 6.804.906 10.142.02.35-.248.648-.597.669h-.036zm-413.144 2.836c-.268 0-.516-.172-.602-.445l-.152-.492c-.988-3.217-1.96-6.494-2.876-9.736-.096-.334.096-.684.435-.78.35-.091.689.101.78.435.921 3.232 1.889 6.505 2.876 9.716l.142.482c.106.334-.081.684-.415.79-.061.02-.127.03-.188.03zm412.815 17.426h-.04c-.35-.025-.613-.329-.588-.679.233-3.312.395-6.706.471-10.09.005-.35.253-.603.648-.618.345.005.623.293.618.648-.076 3.404-.238 6.818-.476 10.152-.02.334-.304.587-.633.587zM32.35 295.725c-.259 0-.507-.162-.598-.425-1.093-3.197-2.167-6.408-3.215-9.63-.106-.33.076-.689.41-.795.334-.107.689.076.795.405 1.048 3.212 2.117 6.418 3.21 9.61.112.329-.066.689-.395.805-.07.02-.136.03-.207.03zm404.055 18.247c-.035 0-.07-.005-.111-.01-.345-.066-.573-.395-.512-.735.582-3.262 1.089-6.62 1.509-9.99.04-.349.375-.597.704-.551.35.045.592.36.552.709-.42 3.394-.932 6.773-1.52 10.05-.055.31-.318.527-.622.527zm-397.194.82c-.254 0-.497-.156-.588-.41-1.195-3.156-2.364-6.327-3.514-9.508-.121-.33.05-.694.38-.815.334-.112.689.055.81.384 1.144 3.177 2.314 6.343 3.504 9.489.121.329-.04.694-.365.815-.076.03-.152.046-.227.046zm7.493 18.865c-.248 0-.48-.147-.582-.39-1.301-3.115-2.572-6.25-3.828-9.412-.132-.324.03-.694.355-.82.313-.127.688.025.82.35 1.25 3.155 2.526 6.286 3.818 9.396.136.324-.016.694-.34.826-.08.035-.162.05-.243.05zm384.997.015c-.056 0-.116-.005-.182-.025-.334-.101-.522-.456-.42-.79.962-3.202 1.848-6.484 2.622-9.746.086-.34.41-.548.765-.472.34.087.552.426.47.765-.784 3.288-1.675 6.59-2.647 9.818-.081.273-.334.45-.608.45zM54.826 352.264c-.238 0-.466-.137-.572-.37-1.403-3.065-2.79-6.16-4.152-9.276-.137-.319.01-.694.329-.835.319-.132.694.005.835.329 1.357 3.11 2.735 6.195 4.137 9.255.147.319.005.694-.309.84-.086.041-.177.057-.268.057zm369.878.42c-.087 0-.173-.015-.259-.056-.319-.137-.46-.511-.324-.83 1.347-3.06 2.613-6.211 3.778-9.367.121-.324.48-.496.815-.375.324.122.49.486.37.816-1.17 3.181-2.451 6.352-3.803 9.432-.107.238-.334.38-.577.38zM63.62 370.556c-.233 0-.456-.127-.567-.345-1.514-3.009-3.013-6.048-4.491-9.118-.152-.314-.02-.694.298-.846.324-.147.694-.02.846.294 1.473 3.06 2.962 6.094 4.476 9.098.157.314.035.694-.279.85-.09.046-.187.067-.283.067zm351.827.162c-.112 0-.223-.026-.324-.086-.304-.183-.4-.568-.223-.867 1.716-2.902 3.362-5.88 4.886-8.86.162-.313.537-.435.85-.273.315.162.436.542.28.851-1.54 2.999-3.196 6.003-4.927 8.926-.117.197-.33.309-.542.309zm-11.302 16.818c-.131 0-.268-.04-.384-.127-.274-.207-.33-.608-.122-.886 2.03-2.685 4.005-5.446 5.868-8.217.198-.289.588-.37.881-.172.29.198.365.593.168.881-1.874 2.792-3.859 5.573-5.904 8.273-.127.162-.314.248-.507.248zm-331.021.957c-.223 0-.436-.116-.552-.324-1.615-2.897-3.246-5.901-4.85-8.93-.163-.31-.051-.695.257-.857.314-.152.694-.045.856.264 1.605 3.019 3.23 6.018 4.84 8.905.173.304.061.694-.242.861-.097.056-.203.081-.31.081zm317.968 14.534c-.152 0-.309-.056-.43-.173-.254-.233-.269-.638-.03-.891 2.308-2.477 4.566-5.025 6.708-7.563.228-.258.628-.299.891-.076.269.228.304.628.076.897-2.157 2.553-4.425 5.11-6.75 7.608-.126.132-.293.198-.465.198zm-307.69 2.968c-.207 0-.415-.106-.536-.299-1.757-2.842-3.524-5.77-5.251-8.703-.172-.303-.076-.694.228-.87.299-.178.688-.072.866.227 1.721 2.928 3.478 5.846 5.235 8.678.182.299.091.689-.207.871-.102.066-.218.096-.335.096zm293.204 11.21c-.177 0-.35-.07-.476-.212-.233-.259-.208-.659.05-.892 2.542-2.28 5.023-4.6 7.388-6.91.248-.242.653-.232.891.01.248.254.243.654-.01.897-2.375 2.32-4.871 4.656-7.423 6.945-.121.107-.273.163-.42.163zm-282.064 5.76c-.203 0-.4-.096-.522-.273-1.914-2.751-3.828-5.588-5.686-8.43-.197-.288-.111-.683.182-.876.289-.187.679-.106.876.187 1.854 2.832 3.762 5.654 5.666 8.394.203.289.132.684-.157.882-.111.076-.233.116-.36.116zm266.438 7.173c-.192 0-.38-.086-.501-.248-.213-.279-.162-.674.116-.886 2.69-2.067 5.358-4.185 7.92-6.302.268-.228.663-.188.886.08.222.274.187.67-.081.892-2.578 2.133-5.251 4.26-7.955 6.333-.116.09-.253.131-.385.131zm-254.352 9.124c-.182 0-.37-.082-.496-.239-2.046-2.588-4.127-5.303-6.188-8.074-.207-.279-.146-.679.132-.887.284-.202.679-.147.891.132 2.046 2.76 4.117 5.466 6.157 8.04.218.273.172.673-.101.89-.117.092-.253.138-.395.138zm237.861 2.684c-.203 0-.4-.101-.527-.283-.192-.29-.116-.684.178-.877 2.815-1.89 5.615-3.83 8.324-5.764.278-.208.678-.137.88.146.203.284.143.684-.141.887-2.719 1.94-5.53 3.885-8.36 5.785-.106.07-.233.106-.354.106zm-17.15 10.83c-.217 0-.425-.11-.546-.308-.178-.3-.081-.69.222-.872 2.947-1.757 5.854-3.535 8.633-5.293.3-.177.689-.096.876.197.183.3.097.69-.197.877-2.795 1.758-5.707 3.546-8.664 5.309-.1.06-.212.09-.324.09zm-207.536 1.916c-.167 0-.34-.071-.46-.203-2.254-2.437-4.528-5-6.755-7.609-.223-.263-.198-.668.07-.891.269-.223.669-.198.892.07 2.217 2.6 4.48 5.142 6.719 7.569.238.258.222.658-.036.896-.121.112-.273.168-.43.168zm189.88 8.084c-.227 0-.445-.121-.556-.329-.168-.309-.051-.694.253-.861 2.987-1.61 5.944-3.242 8.87-4.899.304-.172.69-.065.867.239.167.304.06.689-.244.866-2.931 1.656-5.898 3.292-8.89 4.908-.097.051-.198.076-.3.076zm-175.46 6.18c-.152 0-.304-.055-.42-.162-2.486-2.228-4.977-4.579-7.398-6.985-.253-.248-.253-.649-.005-.897.243-.248.643-.248.892-.005 2.41 2.396 4.886 4.726 7.357 6.945.258.233.278.633.045.897-.126.137-.299.208-.47.208zm157.435 3.126c-.233 0-.46-.127-.567-.35-.157-.314-.025-.699.283-.85 3.038-1.51 6.056-3.03 9.049-4.575.303-.157.683-.035.85.274.157.309.04.694-.273.856-2.998 1.545-6.015 3.07-9.064 4.58-.09.045-.187.065-.278.065zm-18.314 8.749c-.238 0-.466-.137-.572-.37-.147-.314-.01-.694.309-.836 3.073-1.424 6.136-2.862 9.174-4.311.31-.142.7-.015.846.299.152.314.015.694-.299.846-3.048 1.454-6.111 2.887-9.195 4.31-.08.041-.172.062-.263.062zm-123.288.785c-.121 0-.248-.04-.36-.117-2.708-1.905-5.447-3.961-8.136-6.12-.273-.217-.319-.617-.101-.89.228-.27.623-.315.89-.097 2.67 2.138 5.383 4.184 8.072 6.069.289.202.36.597.157.886-.122.172-.32.269-.522.269zm104.817 7.497c-.243 0-.476-.142-.583-.38-.136-.32.01-.694.33-.836 3.098-1.352 6.187-2.715 9.255-4.093.32-.142.694 0 .836.32.142.318 0 .693-.314.835-3.079 1.378-6.167 2.746-9.271 4.098-.081.036-.167.056-.253.056zm-87.419 2.882c-.096 0-.192-.02-.284-.066-2.972-1.464-5.98-3.1-8.941-4.878-.3-.177-.395-.567-.218-.866.177-.299.567-.4.87-.218 2.932 1.753 5.91 3.379 8.852 4.828.313.157.44.532.288.846-.111.228-.34.354-.567.354zm68.72 4.975c-.258 0-.501-.162-.593-.42-.121-.33.051-.695.38-.811 1.469-.532 2.972-1.12 4.471-1.753 1.625-.689 3.256-1.378 4.881-2.072.32-.131.694.01.83.33.137.324-.01.699-.329.83-1.63.7-3.26 1.393-4.89 2.082-1.52.639-3.044 1.236-4.532 1.773-.071.026-.147.04-.218.04zm-49.808 2.183c-.051 0-.107-.01-.157-.02-3.216-.851-6.476-1.905-9.697-3.13-.329-.122-.496-.492-.37-.816.127-.33.492-.492.816-.365 3.185 1.206 6.405 2.25 9.57 3.085.339.091.541.436.45.77-.076.289-.329.476-.612.476zm30.106 2.411c-.324 0-.597-.243-.633-.567-.035-.35.218-.659.562-.7 3.307-.349 6.644-.916 9.914-1.686.355-.086.684.137.76.471.086.34-.127.684-.466.76-3.326.785-6.714 1.358-10.07 1.717-.026.005-.046.005-.067.005zm-10.126.436h-.01c-3.358-.066-6.77-.35-10.153-.836-.344-.05-.582-.37-.531-.714.045-.35.334-.598.714-.537 3.326.481 6.688.755 9.995.82.344.01.628.3.618.649-.006.344-.29.618-.633.618z" transform="translate(-764 -201) translate(764 201)"/>
                <g transform="translate(-764 -201) translate(764 201) translate(47 20)">
                    <mask id="x75wqvfrpd" fill="#fff">
                        <use xlink:href="#s3qzhfcw8c"/>
                    </mask>
                    <path fill="#D1CDD3" d="M343.527 417.537c-2.833.758-5.666 2.223-7.943 4.8-1.316 1.516-3.036 4.346-4.554 7.327-.354-10.207-.708-18.898-1.062-24.254.961-.101 1.518-.101 1.518-.101 0-1.213 0-2.426-.051-3.74-.253-24.607-2.935-67.406-6.476-110.052 1.265 2.627 2.479 5.052 3.643 7.225.05.758.05 1.516.202 2.325 1.872 10.207 11.232 66.698 13.964 100.755.506 6.114.76 11.47.76 15.715m22.515-124.505v-.1c-2.935-9.55-12.801-37.999-24.033-66.245l12.446-4.244s-36.429-64.728-57.73-78.978c-.05-.05-.101-.05-.152-.1-7.488-6.974-18.417-11.521-34.76-13.391-.1-13.491.912-36.23 2.075-53.662 8.4-1.92 12.447-11.774 13.003-13.946 1.164-4.447.102-8.136-2.074-10.51.658-5.508 1.77-16.22 1.467-25.417-.253-8.438-1.619-15.563-5.565-16.422.05-.151.152-.253.202-.354 1.316-4.194-1.164-8.842-1.265-9.044l-2.226 1.212c.607 1.061 1.872 4.396 1.062 7.024-3.744-4.143-15.38-5.81-28.434-5.558-18.266.303-39.212 4.497-44.88 11.066-3.946 4.547-2.782 7.023 1.316 8.135-.607 4.244-.86 7.933-.961 11.318-.607 1.567-1.164 3.184-1.72 4.902-1.468 1.01-2.884 2.476-3.947 4.75l2.328 1.06c.05-.1.1-.15.151-.252-.607 2.577-1.163 5.205-1.568 8.085-4.554 31.328-11.991 62.505 19.125 62.858-.05 3.537-.253 6.973-.607 10.207-.253 2.577-.607 5.003-1.062 7.175-11.84 2.88-21.099 7.428-27.525 13.542-22.869 18.848-51.76 79.382-51.76 79.382l9.715 4.8c-7.185 13.947-14.268 28.196-19.58 39.767-24.59-16.978-67.8-48.458-80.55-62.252 0-.05-.05-.05-.1-.101.505-5.306-.456-13.896-1.873-18.747 0-.1 0-.202-.05-.353-.101-.253-.203-.405-.253-.607-.101-.303-.203-.657-.304-.91-.253-.656-.455-1.11-.658-1.515-3.39-7.478-8.753-10.41-11.94-20.363-1.67-5.306-5.768-3.133-7.337.404L3.977 138.766.69 140.231l15.482 34.714c-3.643-1.617-6.83-2.577-9.006-1.819-2.985 1.01-6.274 16.018-4.857 21.374 1.417 5.306 15.938 22.385 21.351 25.315.405.202.86.354 1.265.405 8.753 12.228 66.787 81.049 90.112 92.974 14.47 7.326 25.348 1.01 28.94-8.388 4.656-7.479 13.206-22.082 22.516-38.958-3.036 46.992-8.854 99.947-19.834 137.086 1.012.152 2.075.303 3.137.455-3.086 15.411-5.363 35.673-6.982 56.239 11.435 4.85 23.072 9.247 34.81 13.188 52.367 17.685 106.707 26.528 153.964 23.648.759-2.324 1.113-4.75 1.062-7.327-.253-10.106-.556-22.485-.86-34.714 2.53 6.57 5.819 11.976 8.45 13.34 2.782 1.415 15.937-6.62 18.821-11.42 2.834-4.648 5.01-26.982 3.34-32.945-.101-.404-.405-.707-.607-1.06.607-3.336 1.517-10.612 2.53-20.111 3.237-32.036 7.083-89.59 1.72-109.195" mask="url(#x75wqvfrpd)"/>
                </g>
                <g fill="#119808" fill-rule="nonzero">
                    <path d="M48.57 6.835c-.735-.736-1.929-.738-2.664-.003L23.299 29.38l-8.156-8.858c-.705-.765-1.897-.815-2.663-.11-.766.705-.815 1.897-.11 2.662l9.485 10.301c.347.378.833.597 1.346.608h.04c.498 0 .978-.198 1.33-.55L48.568 9.502c.737-.735.738-1.929.003-2.666z" transform="translate(-764 -201) translate(764 201) translate(99 82)"/>
                    <path d="M48.116 23.116c-1.041 0-1.885.843-1.885 1.884 0 11.707-9.524 21.231-21.231 21.231-11.707 0-21.231-9.524-21.231-21.231C3.769 13.293 13.293 3.769 25 3.769c1.04 0 1.884-.844 1.884-1.885C26.884.844 26.041 0 25 0 11.215 0 0 11.215 0 25s11.215 25 25 25 25-11.215 25-25c0-1.04-.844-1.884-1.884-1.884z" transform="translate(-764 -201) translate(764 201) translate(99 82)"/>
                </g>
                <g fill="#119808" fill-rule="nonzero" opacity=".198">
                    <path d="M50.34 7.084c-.77-.778-2.02-.779-2.79-.003L23.882 30.89l-8.54-9.355c-.738-.808-1.985-.86-2.788-.116-.801.744-.853 2.003-.115 2.812l9.931 10.877c.364.399.873.63 1.41.641l.042.001c.521 0 1.023-.209 1.392-.58L50.337 9.899c.772-.776.773-2.037.004-2.815z" transform="translate(-764 -201) translate(764 201) translate(96 80)"/>
                    <path d="M50.04 24.04c-1.082 0-1.96.877-1.96 1.96 0 12.176-9.904 22.08-22.08 22.08-12.175 0-22.08-9.904-22.08-22.08C3.92 13.825 13.825 3.92 26 3.92c1.082 0 1.96-.878 1.96-1.96C27.96.877 27.082 0 26 0 11.663 0 0 11.663 0 26c0 14.336 11.663 26 26 26 14.336 0 26-11.664 26-26 0-1.082-.877-1.96-1.96-1.96z" transform="translate(-764 -201) translate(764 201) translate(96 80)"/>
                </g>
                <path fill="#FFAD69" d="M283 216.183l-32.974-21.59s-32.772 60.514-48.933 95.92c-24.568-17.069-67.765-48.673-80.516-62.56-.036-.035-.071-.056-.107-.091.501-5.34-.46-13.942-1.861-18.82-.03-.127-.035-.228-.081-.365-.07-.229-.167-.411-.243-.63-.101-.284-.192-.644-.293-.888-.268-.654-.476-1.132-.663-1.543-3.389-7.466-8.76-10.45-11.927-20.418-2.205-6.959-8.564-1.122-7.936 3.898 0 0 .946 3.258 2.013 6.395-4.203-2.01-7.835-3.228-10.283-2.4-2.965.999-6.278 16.093-4.856 21.489 1.396 5.308 15.933 22.474 21.376 25.427.394.214.809.33 1.234.396 8.776 12.298 66.793 81.43 90.116 93.368 14.447 7.395 25.296 1.025 28.923-8.395 11.027-17.962 44.396-76.42 57.011-109.193" transform="translate(-764 -201) translate(764 201)"/>
                <path fill="#EA3939" d="M287.205 178.673C292.18 203.981 272.18 276 272.18 276L211 245.635s63.083-133.725 76.205-66.962" transform="translate(-764 -201) translate(764 201)"/>
                <path fill="#232323" d="M414 509.162c0 .806 0 1.612-.1 2.418-11.536 2.518-23.826 4.18-36.62 4.886-47.047 2.87-101.146-5.944-153.28-23.574 1.813-26.897 4.634-54.953 8.966-73.892l144.162 2.871 11.283.252 21.459.403 1.259.05c1.007 11.485 2.216 57.976 2.871 86.586" transform="translate(-764 -201) translate(764 201)"/>
                <path fill="#FF4E4A" d="M331.413 149.124c39.78 1.312 53.228 14.736 60.086 37.953C399.284 213.439 413 372.664 413 425.868c0 0-119.048 8.432-185-2.374 20.675-69.83 22.914-195.396 23.33-232.801.308-28.069 29.65-43.235 80.083-41.569" transform="translate(-764 -201) translate(764 201)"/>
                <path fill="#232323" d="M296.973 84.248c-4.009-2.956-24.915-.274-18.89-42.012 2.19-15.228 16.777-5.064 27.1-3.032 10.324 2.031 3.76 45.796 3.76 45.796l-11.97-.752z" transform="translate(-764 -201) translate(764 201)"/>
                <path fill="#FFAD69" d="M349 74c-1.715 11.042-5.146 70.782-3.717 84.653 1.428 13.876-66.347 17.84-57.483 2.55 8.868-15.29 2.575-65.971 2.575-65.971L349 74z" transform="translate(-764 -201) translate(764 201)"/>
                <path fill="#D88344" d="M342.978 76L290 95.31s3.577 29.162 1.419 49.69c40.396-3.11 50.764-53.9 51.449-63.682.11-1.842.166-3.62.11-5.318" transform="translate(-764 -201) translate(764 201)"/>
                <path fill="#FFAD69" d="M272.226 72.063c-4.957 34.006-13.373 67.912 28.04 62.33 41.42-5.58 47.854-58.433 47.732-68.402-.645-53.196-66.026-60.8-75.772 6.072" transform="translate(-764 -201) translate(764 201)"/>
                <path fill="#232323" d="M352.419 30.381c.05-.132.16-.223.206-.354 1.332-4.177-1.12-8.83-1.226-9.027l-2.211 1.2c.02.04 2.03 3.893 1.045 7.027-8.976-9.989-63.194-5.731-72.838 5.553-12.252 14.338 25.429 7.873 46.66 4.253 2.976 12.525 16.454 33.266 20.338 36.213l11.614.754s6.337-43.422-3.588-45.619" transform="translate(-764 -201) translate(764 201)"/>
                <path fill="#FFAD69" d="M443.073 442.374c2.617-14.549 11.238-103.921 4.26-129.329-.01-.04-.006-.08-.016-.126-4.87-15.904-29.06-84.459-46.575-116.919L363 207.081s31.587 82.472 46.904 111.641c.045.784.045 1.552.197 2.36 2.253 12.032 14.846 88.372 14.704 116.49-2.789.778-5.629 2.244-7.888 4.823-2.875 3.285-7.888 12.724-7.534 16.91 1.006 11.945 7.64 26.176 12.183 28.526 2.78 1.436 15.877-6.637 18.753-11.394 2.83-4.681 5.012-27.01 3.345-32.966-.111-.41-.384-.738-.591-1.097" transform="translate(-764 -201) translate(764 201)"/>
                <path fill="#FF4E4A" d="M378.758 163.477C399.903 177.771 436 242.792 436 242.792L371.72 265s-48.744-139.229 7.038-101.523" transform="translate(-764 -201) translate(764 201)"/>
                <path fill="#232323" d="M307.723 69.818c.13 1.657-.755 3.076-1.985 3.177-1.23.096-2.33-1.162-2.46-2.818-.135-1.651.755-3.075 1.985-3.171 1.225-.101 2.325 1.156 2.46 2.812M281.723 70.818c.13 1.657-.755 3.076-1.985 3.177-1.225.096-2.33-1.162-2.46-2.813-.135-1.656.755-3.08 1.985-3.176 1.225-.101 2.33 1.156 2.46 2.812M313.933 60c-3.43-4.779-9.331-3.641-9.39-3.632L304 54.182c.31-.058 7.643-1.469 12 4.595L313.933 60zM274.418 64L272 62.949c3.59-7.433 11.66-6.953 12-6.938l-.186 2.522c-.25-.016-6.584-.334-9.396 5.467M298.867 102c-1.73 0-2.825-.187-2.867-.197l.474-2.482c.48.086 11.92 1.966 18.295-8.321L317 92.304c-5.26 8.483-13.729 9.696-18.133 9.696" transform="translate(-764 -201) translate(764 201)"/>
                <path fill="#D88344" d="M280 90L286.287 68 288.654 68.71 283.311 87.417 291.965 87.301 292 89.838z" transform="translate(-764 -201) translate(764 201)"/>
                <path fill="#232323" d="M116 225.525L112.792 227 84 160.475 87.203 159z" transform="translate(-764 -201) translate(764 201)"/>
                <path fill="#FFAD69" d="M337.186 77.788c-3.767 8.426-8.48 16.578 3.344 18.09 11.824 1.518 17.325-11.664 17.995-14.248 3.573-13.776-13.936-20.41-21.339-3.842" transform="translate(-764 -201) translate(764 201)"/>
                <g fill="#FFF" fill-rule="nonzero">
                    <path d="M11.113 23.081L11.113 13.186 13.205 13.186 13.205 21.289 17.92 21.289 17.92 13.186 20.011 13.186 20.011 21.289 21.216 21.289 21.216 25.357 19.125 25.357 19.125 23.081zM24.997 21.912L26.925 15.214 30.309 15.214 30.309 22.314 28.55 22.314 28.55 15.616 26.621 22.281 23.237 22.281 23.237 15.214 24.997 15.214zM40.398 16.305c.694.717 1.025 1.605 1.025 2.63 0 1.059-.331 1.913-1.025 2.63-.695.718-1.554 1.094-2.612 1.128v2.664h-1.819v-2.664c-1.025-.034-1.918-.41-2.612-1.128-.694-.717-1.025-1.605-1.025-2.63 0-1.059.33-1.913 1.025-2.63.694-.718 1.554-1.093 2.612-1.127V12.17h1.819v3.007c1.058.034 1.917.41 2.612 1.127zm-6.183 2.63c0 .547.165 1.025.496 1.4.33.376.727.581 1.256.616V16.92c-.496.034-.926.239-1.256.615-.331.41-.496.854-.496 1.4zm3.57-2.015v4.03c.497-.034.926-.239 1.257-.614.33-.376.496-.854.496-1.401 0-.546-.165-1.025-.496-1.4-.33-.376-.76-.581-1.256-.615zM47.232 15.214c.938 0 1.732.373 2.345 1.086.614.712.938 1.594.938 2.646 0 1.051-.324 1.933-.938 2.646-.613.712-1.407 1.085-2.345 1.085-.685 0-1.263-.203-1.732-.576-.505-.407-.83-.916-1.082-1.595v4.851h-1.985v-9.973h1.985v2.07c.216-.68.577-1.222 1.082-1.595.47-.441 1.047-.645 1.732-.645zm-.722 5.767c.542 0 1.01-.203 1.371-.577.361-.373.578-.848.578-1.424 0-.577-.18-1.052-.578-1.425-.396-.373-.83-.577-1.37-.577-.614 0-1.083.204-1.48.577s-.577.848-.577 1.425c0 .576.18 1.051.577 1.424.36.374.866.577 1.48.577zM52.67 22.148c-.787-.774-1.144-1.733-1.144-2.877 0-1.143.393-2.102 1.144-2.876.787-.775 1.753-1.18 2.897-1.18 1.145 0 2.11.405 2.897 1.18.787.774 1.144 1.733 1.144 2.876 0 1.144-.393 2.103-1.144 2.877-.787.775-1.752 1.18-2.897 1.18-1.144 0-2.11-.405-2.897-1.18zm.894-2.914c0 .628.18 1.144.572 1.55.394.405.859.627 1.431.627.572 0 1.037-.222 1.43-.627.394-.406.573-.922.573-1.55 0-.626-.18-1.143-.572-1.548-.394-.406-.859-.628-1.43-.628-.573 0-1.038.222-1.432.628-.357.442-.572.958-.572 1.548zM65.768 18.747c.617.068 1.089.27 1.415.572.327.303.508.707.508 1.178 0 .539-.254.976-.725 1.313-.472.336-1.088.504-1.886.504h-4.461v-7.1h4.098c.761 0 1.415.168 1.886.505.471.337.725.774.725 1.312 0 .404-.145.774-.398 1.077-.291.303-.654.505-1.162.64zm-1.16-2.019h-2.103v1.28h2.103c.218 0 .4-.068.544-.17.145-.134.218-.268.218-.47 0-.168-.073-.337-.218-.438-.145-.1-.29-.202-.544-.202zM62.54 20.8h2.466c.218 0 .399-.067.544-.168.145-.135.217-.27.217-.471 0-.169-.072-.337-.217-.438-.145-.1-.326-.168-.544-.168h-2.466V20.8zM69.845 22.148c-.786-.774-1.144-1.733-1.144-2.877 0-1.143.394-2.102 1.144-2.876.787-.775 1.753-1.18 2.897-1.18 1.145 0 2.11.405 2.897 1.18.786.774 1.145 1.733 1.145 2.876 0 1.144-.394 2.103-1.145 2.877-.787.775-1.752 1.18-2.897 1.18-1.18-.036-2.146-.405-2.897-1.18zm.895-2.914c0 .628.178 1.144.572 1.55.393.405.858.627 1.43.627s1.037-.222 1.43-.627c.394-.406.573-.922.573-1.55 0-.626-.179-1.143-.572-1.548-.394-.406-.859-.628-1.43-.628-.573 0-1.038.222-1.431.628-.394.442-.572.958-.572 1.548zM80.564 21.945l1.928-6.75h3.384v7.12h-1.76V15.63l-1.928 6.683h-3.384v-7.086h1.76v6.717zm1.793-7.49c-.677 0-1.218-.201-1.658-.604-.406-.403-.643-.974-.643-1.68h1.49c0 .672.27 1.008.778 1.008.541 0 .812-.336.812-1.008h1.489c0 .706-.203 1.277-.644 1.68-.405.403-.947.604-1.624.604zM11.113 38.543L11.113 31.443 18.186 31.443 18.186 38.543 16.269 38.543 16.269 33.084 13.064 33.084 13.064 38.543zM25.005 31.443c.938 0 1.732.373 2.346 1.085.613.713.938 1.595.938 2.646 0 1.052-.325 1.934-.938 2.646-.614.713-1.408 1.086-2.346 1.086-.685 0-1.263-.204-1.732-.577-.505-.407-.83-.916-1.082-1.594v4.85h-1.985V31.58h1.985v2.069c.216-.679.577-1.221 1.082-1.595.47-.407 1.047-.61 1.732-.61zm-.722 5.767c.542 0 1.01-.204 1.372-.577.36-.373.577-.848.577-1.425 0-.576-.18-1.051-.577-1.425-.361-.373-.83-.576-1.372-.576-.613 0-1.082.203-1.479.576-.397.374-.577.849-.577 1.425 0 .577.18 1.052.577 1.425.36.373.866.577 1.48.577zM30.443 38.377c-.786-.775-1.144-1.734-1.144-2.877 0-1.143.393-2.102 1.144-2.877.787-.774 1.753-1.18 2.897-1.18 1.145 0 2.11.406 2.897 1.18.787.775 1.144 1.734 1.144 2.877 0 1.143-.393 2.102-1.144 2.877-.787.774-1.752 1.18-2.897 1.18-1.144 0-2.146-.406-2.897-1.18zm.894-2.914c0 .627.18 1.143.573 1.55.393.405.858.626 1.43.626s1.037-.221 1.43-.627c.394-.406.573-.922.573-1.549 0-.627-.179-1.143-.572-1.549-.394-.406-.859-.627-1.43-.627-.573 0-1.038.221-1.431.627-.394.443-.573.959-.573 1.55zM43.19 31.443c.939 0 1.733.373 2.346 1.085.613.713.938 1.595.938 2.646 0 1.052-.325 1.934-.938 2.646-.613.713-1.407 1.086-2.345 1.086-.686 0-1.263-.204-1.732-.577-.505-.407-.83-.916-1.083-1.594v4.85h-1.984V31.58h1.984v2.069c.217-.679.578-1.221 1.083-1.595.505-.407 1.082-.61 1.732-.61zm-.721 5.767c.541 0 1.01-.204 1.371-.577s.578-.848.578-1.425c0-.576-.18-1.051-.578-1.425-.36-.373-.83-.576-1.371-.576-.613 0-1.082.203-1.48.576-.396.374-.577.849-.577 1.425 0 .577.18 1.052.578 1.425.397.373.866.577 1.479.577zM52.16 38.543h-3.665v-7.1h1.901v2.01h1.73c.863 0 1.555.234 2.073.703.519.469.796 1.071.796 1.842 0 .77-.277 1.373-.796 1.842-.45.468-1.14.703-2.04.703zm-1.73-3.45v1.809h1.522c.346 0 .622-.1.83-.268.207-.167.311-.402.311-.636 0-.235-.104-.47-.311-.637-.208-.167-.484-.268-.83-.268h-1.521zm7.158 3.45h-1.902v-7.1h1.902v7.1zM63.748 34.976c.616.067 1.088.27 1.414.572.327.303.508.707.508 1.178 0 .538-.254.976-.725 1.312-.472.337-1.089.505-1.887.505h-4.46v-7.1h4.098c.762 0 1.414.168 1.886.505.472.336.725.774.725 1.312 0 .404-.145.774-.399 1.077-.29.336-.689.538-1.16.639zm-1.16-1.985h-2.105v1.278h2.104c.218 0 .399-.067.544-.168.145-.134.218-.269.218-.471 0-.168-.073-.337-.218-.437-.109-.135-.29-.202-.544-.202zm-2.068 4.038h2.466c.218 0 .399-.068.544-.169.145-.134.218-.269.218-.47 0-.169-.073-.337-.218-.438-.145-.101-.326-.168-.544-.168H60.52v1.245z" transform="translate(-764 -201) translate(764 201) translate(265 217)"/>
                    <path d="M93.525 71h-57.21c-2.478 0-4.475-2.02-4.475-4.53V54.627c0-1.359-1.067-2.439-2.409-2.439H4.475C1.996 52.187 0 50.167 0 47.658V4.53C0 2.021 1.996 0 4.475 0h89.05C96.004 0 98 2.02 98 4.529v61.942C98 68.979 96.004 71 93.525 71zM4.475 2.09c-1.343 0-2.41 1.08-2.41 2.439v43.13c0 1.358 1.067 2.438 2.41 2.438H29.43c2.478 0 4.475 2.02 4.475 4.529v11.845c0 1.359 1.067 2.438 2.41 2.438h57.209c1.343 0 2.41-1.08 2.41-2.438V4.529c0-1.359-1.067-2.439-2.41-2.439H4.475z" transform="translate(-764 -201) translate(764 201) translate(265 217)"/>
                    <path d="M85.876 50.714L53.546 50.714 53.546 48.686 83.835 48.686z" transform="translate(-764 -201) translate(764 201) translate(265 217)"/>
                    <path d="M83.374 34.486L85.298 34.486 88.907 42.843 86.645 42.843 85.45 40.219 85.524 50.714 83.047 50.714 83.072 40.219 82.027 42.843 79.814 42.843z" transform="translate(-764 -201) translate(764 201) translate(265 217)"/>
                </g>
            </g>
        </g>
    </g>
</svg>
