<svg xmlns="http://www.w3.org/2000/svg" width="18" height="12" viewBox="0 0 18 12">
    <g fill="none" fill-rule="evenodd" opacity=".497">
        <g fill="#414744" fill-rule="nonzero">
            <g>
                <g>
                    <g>
                        <path d="M16.418.02H1.582C.71.02 0 .71 0 1.556v8.89c0 .846.71 1.534 1.582 1.534h14.836c.872 0 1.582-.688 1.582-1.534v-8.89C18 .709 17.29.02 16.418.02zm-.207 1.023l-.21.171L9.627 6.36c-.364.293-.892.293-1.256 0L2 1.214l-.211-.17H16.21zm-15.156.739l5.192 4.192-5.192 3.351V1.782zm15.363 9.175H1.582c-.255 0-.468-.177-.517-.41l6.028-3.89.604.489c.378.304.84.457 1.303.457.463 0 .925-.153 1.303-.457l.604-.489 6.028 3.89c-.05.233-.262.41-.517.41zm.527-1.632l-5.192-3.35 5.192-4.193v7.543z" transform="translate(-169 -362) translate(149.5 235) translate(.5 108) translate(19 19)"/>
                    </g>
                </g>
            </g>
        </g>
    </g>
</svg>
