<svg xmlns="http://www.w3.org/2000/svg" width="16" height="18" viewBox="0 0 16 18">
    <g fill="none" fill-rule="evenodd" opacity=".499">
        <g fill="#414744" fill-rule="nonzero">
            <g>
                <g>
                    <g>
                        <path d="M14 18H2c-1.102 0-2-.757-2-1.688V8.438c0-.93.898-1.687 2-1.687h12c1.102 0 2 .757 2 1.688v7.874c0 .931-.898 1.688-2 1.688zM2 7.875c-.367 0-.667.252-.667.563v7.874c0 .311.3.563.667.563h12c.367 0 .667-.252.667-.563V8.438c0-.31-.3-.562-.667-.562H2z" transform="translate(-170 -429) translate(149.5 235) translate(.5 178) translate(20 16)"/>
                        <path d="M12.667 7.875c-.368 0-.667-.252-.667-.563V4.5c0-1.86-1.795-3.375-4-3.375S4 2.639 4 4.5v2.813c0 .31-.299.562-.667.562-.368 0-.666-.252-.666-.563V4.5C2.667 2.018 5.059 0 8 0c2.941 0 5.333 2.018 5.333 4.5v2.813c0 .31-.298.562-.666.562zM8 12.75c-.98 0-1.778-.673-1.778-1.5S7.02 9.75 8 9.75s1.778.673 1.778 1.5-.798 1.5-1.778 1.5zm0-1.875c-.244 0-.444.168-.444.375s.2.375.444.375.444-.168.444-.375-.2-.375-.444-.375z" transform="translate(-170 -429) translate(149.5 235) translate(.5 178) translate(20 16)"/>
                        <path d="M8 15c-.368 0-.667-.252-.667-.563v-2.062c0-.31.299-.563.667-.563.368 0 .667.253.667.563v2.063c0 .31-.299.562-.667.562z" transform="translate(-170 -429) translate(149.5 235) translate(.5 178) translate(20 16)"/>
                    </g>
                </g>
            </g>
        </g>
    </g>
</svg>
