<svg xmlns="http://www.w3.org/2000/svg" width="24" height="24" viewBox="0 0 24 24">
    <g fill="none" fill-rule="evenodd" opacity=".197">
        <g fill="#000" fill-rule="nonzero">
            <g>
                <g>
                    <path d="M23.66 22.293l-6.81-6.825c1.319-1.633 2.113-3.708 2.113-5.968 0-5.238-4.254-9.5-9.482-9.5C4.254 0 0 4.262 0 9.5S4.254 19 9.481 19c2.256 0 4.327-.796 5.957-2.118l6.812 6.825c.194.195.45.293.705.293.256 0 .511-.098.706-.293.39-.39.39-1.023 0-1.414zM9.482 17c-4.127 0-7.485-3.364-7.485-7.5S5.354 2 9.481 2c4.128 0 7.486 3.364 7.486 7.5S13.609 17 9.48 17z" transform="translate(-185 -438) translate(150 414) translate(35 24)"/>
                </g>
            </g>
        </g>
    </g>
</svg>
