<svg xmlns="http://www.w3.org/2000/svg" width="350" height="244" viewBox="0 0 350 244">
    <defs>
        <linearGradient id="s84or622ea" x1="50%" x2="50%" y1="100.001%" y2="0%">
            <stop offset="0%" stop-color="gray" stop-opacity=".25"/>
            <stop offset="54%" stop-color="gray" stop-opacity=".12"/>
            <stop offset="100%" stop-color="gray" stop-opacity=".1"/>
        </linearGradient>
        <linearGradient id="nk99s52t8b" x1="49.984%" x2="49.984%" y1="99.984%" y2=".018%">
            <stop offset="0%" stop-color="gray" stop-opacity=".25"/>
            <stop offset="54%" stop-color="gray" stop-opacity=".12"/>
            <stop offset="100%" stop-color="gray" stop-opacity=".1"/>
        </linearGradient>
        <linearGradient id="9wfbtvpmsc" x1=".02%" x2="100.01%" y1="49.978%" y2="49.978%">
            <stop offset="0%" stop-color="gray" stop-opacity=".25"/>
            <stop offset="54%" stop-color="gray" stop-opacity=".12"/>
            <stop offset="100%" stop-color="gray" stop-opacity=".1"/>
        </linearGradient>
        <linearGradient id="d8vu844d4d" x1="49.984%" x2="49.984%" y1="100.004%" y2="-.031%">
            <stop offset="0%" stop-color="gray" stop-opacity=".25"/>
            <stop offset="54%" stop-color="gray" stop-opacity=".12"/>
            <stop offset="100%" stop-color="gray" stop-opacity=".1"/>
        </linearGradient>
        <linearGradient id="35l2ubmqje" x1="49.958%" x2="49.958%" y1="100.082%" y2=".008%">
            <stop offset="0%" stop-color="gray" stop-opacity=".25"/>
            <stop offset="54%" stop-color="gray" stop-opacity=".12"/>
            <stop offset="100%" stop-color="gray" stop-opacity=".1"/>
        </linearGradient>
    </defs>
    <g fill="none" fill-rule="evenodd">
        <g fill-rule="nonzero">
            <g transform="translate(-820 -121) translate(820 121)">
                <path fill="#9F6F5A" d="M329.08 152.272c-12.304 15.038-8.243 36.503-1.13 53.604 2.382 5.724 5.088 11.78 3.853 18.008-1.509 7.614-8.6 13.319-15.97 16.426-13.437 5.663-29.31 4.759-41.329-2.376-10.372-6.159-17.673-16.393-28.247-22.258-17.695-9.811-40.668-5.428-60.362 2.063-13.934 5.3-29.197 12.124-42.775 7.23-9.555-3.442-15.989-12.207-19.374-21.576-1.634-4.524-2.778-9.434-6.034-12.975-1.937-2.105-4.495-3.572-7.126-4.798-24.01-11.197-54.894-4.199-78.171-16.692-15.716-8.437-25.497-24.81-29.561-42.024-4.064-17.213-3.058-35.383-1.44-53.243 1.15-12.692 2.97-26.254 11.539-36.228 9.061-10.545 24.249-14.736 37.83-13.084 13.581 1.651 25.757 8.37 36.41 16.39 13.323 10.004 25.58 22.565 42.151 26.364 11.287 2.586 23.278.755 35.011-.054 19.613-1.349 39.156.205 58.58 1.96 18.595 1.68 37.319 3.555 54.93 9.061 12.462 3.897 22.34 11.262 34.073 16.295 7.648 3.281 16.062 4.042 23.26 8.28 8.882 5.221 16.909 14.47 14.303 25.57-2.46 10.55-13.883 16.076-20.42 24.057z" opacity=".172"/>
                <g transform="rotate(-7 689.92 -172.714)">
                    <path fill="#F2F2F2" d="M135.953 131.134l-92.646 23.91c-6.544 1.681-13.21-2.263-14.902-8.818L.387 37.18c-1.678-6.558 2.258-13.239 8.798-14.934L95.377 0l22.061 9.898 27.313 106.301c1.678 6.558-2.258 13.24-8.798 14.935z"/>
                    <path fill="#FFF" d="M9.347 25.372C4.69 26.576 1.885 31.319 3.08 35.975l28.025 108.72c1.206 4.654 5.954 7.454 10.615 6.261l92.669-23.839c4.658-1.204 7.461-5.947 6.267-10.603l-26.897-104.34L94.367 3.5 9.347 25.37z"/>
                    <path fill="#F2F2F2" d="M116.899 10.171l-14.473 3.702c-2.2.562-4.443-.753-5.01-2.938L94.663.32c-.024-.095.008-.195.083-.259.075-.063.18-.078.27-.038l21.923 9.669c.1.044.161.146.152.254-.009.109-.086.2-.192.226z"/>
                    <ellipse cx="50.132" cy="120.075" fill="#E6E6E6" rx="7.362" ry="7.352"/>
                    <path fill="#FFF" d="M104.631 84.765L48.427 99.22c-3.382.866-6.828-1.167-7.702-4.545l-11.778-45.72c-.867-3.379 1.168-6.821 4.548-7.695L89.7 26.805c3.382-.866 6.827 1.167 7.701 4.545l11.779 45.72c.866 3.379-1.168 6.821-4.549 7.695z"/>
                    <path fill="#F2F2F2" d="M86.915 42.018L58.76 49.67c-.51.15-1.045-.143-1.222-.67-.08-.269-.052-.56.077-.807.13-.246.35-.425.607-.495l28.66-7.79c1.157.619.852 1.886.031 2.109zM88.317 46.919l-28.154 7.653c-.51.15-1.044-.143-1.221-.67-.08-.269-.053-.56.077-.807.129-.246.348-.425.607-.495l28.658-7.79c1.158.619.854 1.886.033 2.109z"/>
                    <path fill="#E6E6E6" d="M54.575 58.64l-8.55 2.238c-.582.151-1.174-.204-1.324-.795l-2.598-10.256c-.149-.59.201-1.193.782-1.346l8.55-2.237c.582-.151 1.174.205 1.324.795l2.597 10.256c.15.59-.2 1.193-.781 1.345z"/>
                    <path fill="#F2F2F2" d="M91.123 57.34L48.24 68.577c-.51.145-1.042-.137-1.219-.644-.08-.259-.052-.54.077-.776.129-.237.348-.41.606-.477L91.09 55.311c1.155.596.85 1.815.032 2.03zM92.525 62.242L49.643 73.477c-.51.145-1.042-.137-1.219-.644-.08-.259-.052-.54.077-.776.13-.237.348-.41.606-.477l43.386-11.368c1.155.596.851 1.815.032 2.03zM93.927 67.143L51.046 78.378c-.51.145-1.043-.137-1.22-.644-.08-.259-.052-.54.077-.776.13-.237.349-.41.606-.477l43.386-11.368c1.156.596.852 1.815.032 2.03zM94.628 71.343L51.747 82.58c-.51.145-1.043-.137-1.22-.645-.08-.258-.052-.538.078-.775.129-.237.348-.41.605-.477l43.386-11.368c1.156.596.852 1.815.032 2.03zM96.03 76.945L53.15 88.18c-.51.145-1.043-.137-1.22-.644-.08-.259-.052-.54.077-.776.129-.237.348-.41.606-.477l43.386-11.368c1.155.596.851 1.815.032 2.03z"/>
                    <path fill="#FFF" d="M50.677 122.5c-.162.042-.333.03-.488-.033l-.01-.004-2.027-.858c-.256-.108-.434-.344-.468-.62-.034-.274.082-.547.304-.713.222-.167.517-.203.772-.094l1.314.558 1.721-4.04c.08-.19.233-.339.424-.416.191-.077.405-.075.595.006l-.01.026.01-.026c.395.168.579.622.411 1.016l-2.025 4.75c-.095.223-.288.388-.523.447v.001z"/>
                    <path fill="#E6E6E6" d="M104.631 84.765L48.427 99.22c-3.382.866-6.828-1.167-7.702-4.545l-11.778-45.72c-.867-3.379 1.168-6.821 4.548-7.695L89.7 26.805c3.382-.866 6.827 1.167 7.701 4.545l11.779 45.72c.866 3.379-1.168 6.821-4.549 7.695zM33.681 41.98c-2.983.771-4.778 3.809-4.014 6.79l11.779 45.72c.771 2.98 3.811 4.774 6.795 4.01l56.205-14.456c2.982-.771 4.778-3.809 4.013-6.79l-11.778-45.72c-.772-2.98-3.812-4.774-6.796-4.01L33.68 41.98z"/>
                </g>
                <path fill="url(#s84or622ea)" d="M108 4H284V214H108z"/>
                <path fill="#FFF" d="M112 6H282V211H112z"/>
                <path fill="#9F6F5A" d="M178 29H246V32H178zM178 40H246V43H178zM194 51H230V54H194z"/>
                <path fill="#9F6F5A" d="M178 97H246V100H178zM178 107H246V110H178zM194 118H230V121H194zM178 164H246V167H178zM178 175H246V178H178zM194 185H230V188H194z" opacity=".5"/>
                <g opacity=".5" transform="translate(121 90)">
                    <path fill="#C0BCCF" d="M37.8 19.122c.008 4.503-1.604 8.86-4.54 12.274-.145.169-.294.335-.447.499-.076.085-.153.168-.233.25-.625.658-1.298 1.268-2.014 1.828l-.05.036c-1.105.866-2.305 1.603-3.578 2.196-.653.307-1.323.576-2.008.805l-.252.08c-.156.053-.316.1-.474.144l-.064.02c-3.404.973-7.012.973-10.416 0h-.027c-.278-.08-.555-.164-.81-.255l-.236-.084c-.898-.316-1.77-.702-2.607-1.153l-.053-.028c-1.332-.721-2.572-1.6-3.695-2.616l-.091-.086c-.573-.519-1.112-1.074-1.612-1.664-.066-.075-.13-.153-.194-.23-.122-.144-.238-.294-.355-.444-5.059-6.512-5.3-15.554-.598-22.328 4.702-6.773 13.26-9.707 21.128-7.243C32.444 3.587 37.8 10.876 37.8 19.122z"/>
                    <path fill="url(#nk99s52t8b)" d="M32.638 25.485l-1.43-.644c.021-.217.03-.436.027-.654.01-.185.01-.37 0-.555-.142-1.459-1.07-2.73-1.728-4.063-.602-1.218-.984-2.533-1.129-3.884-.175-1.664 0-3.39-.61-4.953-.497-1.263-1.479-2.317-2.53-3.248-1.18-1.108-2.559-1.982-4.063-2.577-1.537-.555-3.304-.696-4.84-.13-1.387.51-2.455 1.528-3.487 2.518-.75.66-1.411 1.413-1.97 2.241-.63 1.032-.898 2.219-1.109 3.39-.331 1.874-.559 3.764-.682 5.663-.108 1.584-.278 3.382-1.631 4.352-.66.475-1.59.741-1.892 1.46-.086.215-.12.448-.1.679-.008.192.006.385.042.574.02.111.041.22.07.33-.39.966-.715 1.955-.977 2.963-.203.748-.388 1.484-.555 2.196h.688l2.585.061h.036l2.774.064h.014l2.585.061h.064l.746.053h.244l10.338.238h.055l.688.017h.241l2.07.047 3.05.07h.023l2.296.055h.716l-.122-2.408c.505-3.686-.497-3.916-.497-3.916zm-11.613-.294c0 2.041-2.186 4.54-2.186 4.54l-2.2-2.995.081-.117 2.12 2.885s2.185-2.496 2.185-4.54c.05-.104.11-.205.175-.3l.05.155c-.084.118-.16.243-.225.372zm3.362 8.01c0-.102 0-.208-.02-.31-.02-.103-.016-.194-.03-.294-.014-.1-.025-.197-.04-.297-.013-.1-.032-.197-.052-.297l-.06-.297c0-.033-.015-.063-.023-.1-.03-.13-.064-.26-.1-.39-.036-.13-.058-.211-.091-.314 0-.047-.028-.094-.045-.139-.017-.044-.047-.15-.072-.224l-.05-.145c-.022-.063-.044-.13-.07-.194-.04-.116-.085-.23-.13-.346-.044-.117-.091-.23-.138-.344-.095-.233-.197-.464-.3-.697-.402-.898-.854-1.783-1.27-2.66-.223-.458-.421-.929-.594-1.409l-.053.07c-.084.119-.159.244-.224.374 0 2.042-2.186 4.54-2.186 4.54l-2.2-2.995-1.924 2.774c-.278.139-.555.61-.771 1.281-.062.18-.12.38-.175.588-.04.142-.075.278-.108.436-.02.075-.036.15-.053.227l-.05.236v.036c-.033.161-.067.327-.097.497-.03.169-.067.363-.097.554-.022.12-.042.24-.058.358-.04.23-.073.463-.106.696-.02.136-.039.278-.055.403l-.067.515c.142.425.3.833.463 1.26.104.224.166.466.18.713 3.413.91 7.004.91 10.416 0v-.025c-.051-.233-.074-.47-.067-.708.056-.666.149-1.33.278-1.986.04-.323.058-.65.052-.976v-.117c-.008-.105-.01-.2-.013-.29V33.2zm0 0c0-.102 0-.208-.02-.31-.02-.103-.016-.194-.03-.294-.014-.1-.025-.197-.04-.297-.013-.1-.032-.197-.052-.297l-.06-.297c0-.033-.015-.063-.023-.1-.03-.13-.064-.26-.1-.39-.036-.13-.058-.211-.091-.314 0-.047-.028-.094-.045-.139-.017-.044-.047-.15-.072-.224l-.05-.145c-.022-.063-.044-.13-.07-.194-.04-.116-.085-.23-.13-.346-.044-.117-.091-.23-.138-.344-.095-.233-.197-.464-.3-.697-.402-.898-.854-1.783-1.27-2.66-.223-.458-.421-.929-.594-1.409l-.053.07c-.084.119-.159.244-.224.374 0 2.042-2.186 4.54-2.186 4.54l-2.2-2.995-1.924 2.774c-.278.139-.555.61-.771 1.281-.062.18-.12.38-.175.588-.04.142-.075.278-.108.436-.02.075-.036.15-.053.227l-.05.236v.036c-.033.161-.067.327-.097.497-.03.169-.067.363-.097.554-.022.12-.042.24-.058.358-.04.23-.073.463-.106.696-.02.136-.039.278-.055.403l-.067.515c.142.425.3.833.463 1.26.104.224.166.466.18.713 3.413.91 7.004.91 10.416 0v-.025c-.051-.233-.074-.47-.067-.708.056-.666.149-1.33.278-1.986.04-.323.058-.65.052-.976v-.117c-.008-.105-.01-.2-.013-.29V33.2zm0 0c0-.102 0-.208-.02-.31-.02-.103-.016-.194-.03-.294-.014-.1-.025-.197-.04-.297-.013-.1-.032-.197-.052-.297l-.06-.297c0-.033-.015-.063-.023-.1-.03-.13-.064-.26-.1-.39-.036-.13-.058-.211-.091-.314 0-.047-.028-.094-.045-.139-.017-.044-.047-.15-.072-.224l-.05-.145c-.022-.063-.044-.13-.07-.194-.04-.116-.085-.23-.13-.346-.044-.117-.091-.23-.138-.344-.095-.233-.197-.464-.3-.697-.402-.898-.854-1.783-1.27-2.66-.223-.458-.421-.929-.594-1.409l-.053.07c-.084.119-.159.244-.224.374 0 2.042-2.186 4.54-2.186 4.54l-2.2-2.995-1.924 2.774c-.278.139-.555.61-.771 1.281-.062.18-.12.38-.175.588-.04.142-.075.278-.108.436-.02.075-.036.15-.053.227l-.05.236v.036c-.033.161-.067.327-.097.497-.03.169-.067.363-.097.554-.022.12-.042.24-.058.358-.04.23-.073.463-.106.696-.02.136-.039.278-.055.403l-.067.515c.142.425.3.833.463 1.26.104.224.166.466.18.713 3.413.91 7.004.91 10.416 0v-.025c-.051-.233-.074-.47-.067-.708.056-.666.149-1.33.278-1.986.04-.323.058-.65.052-.976v-.117c-.008-.105-.01-.2-.013-.29V33.2zm0 0c0-.102 0-.208-.02-.31-.02-.103-.016-.194-.03-.294-.014-.1-.025-.197-.04-.297-.013-.1-.032-.197-.052-.297l-.06-.297c0-.033-.015-.063-.023-.1-.03-.13-.064-.26-.1-.39-.036-.13-.058-.211-.091-.314 0-.047-.028-.094-.045-.139-.017-.044-.047-.15-.072-.224l-.05-.145c-.022-.063-.044-.13-.07-.194-.04-.116-.085-.23-.13-.346-.044-.117-.091-.23-.138-.344-.095-.233-.197-.464-.3-.697-.402-.898-.854-1.783-1.27-2.66-.223-.458-.421-.929-.594-1.409l-.053.07c-.084.119-.159.244-.224.374 0 2.042-2.186 4.54-2.186 4.54l-2.2-2.995-1.924 2.774c-.278.139-.555.61-.771 1.281-.062.18-.12.38-.175.588-.04.142-.075.278-.108.436-.02.075-.036.15-.053.227l-.05.236v.036c-.033.161-.067.327-.097.497-.03.169-.067.363-.097.554-.022.12-.042.24-.058.358-.04.23-.073.463-.106.696-.02.136-.039.278-.055.403l-.067.515c.142.425.3.833.463 1.26.104.224.166.466.18.713 3.413.91 7.004.91 10.416 0v-.025c-.051-.233-.074-.47-.067-.708.056-.666.149-1.33.278-1.986.04-.323.058-.65.052-.976v-.117c-.008-.105-.01-.2-.013-.29V33.2z"/>
                    <path fill="#493545" d="M11.727 13.855H24.486V22.454H11.727z"/>
                    <path fill="#C77485" d="M26.606 23.338l-5.34 7.522-5.58-.485s-7.282.483-2.428-5.095c2.333-2.682 3.096-4.918 3.26-6.513.177-1.725-.347-2.707-.347-2.707l6.066-.727c-.274.818-.308 1.696-.1 2.533.76 3.15 4.469 5.472 4.469 5.472z"/>
                    <path fill="#000" d="M22.134 17.857c-1.606 1.217-3.712 1.556-5.62.904.178-1.725-.346-2.707-.346-2.707l6.066-.726c-.273.816-.308 1.694-.1 2.53z" opacity=".1"/>
                    <circle cx="18.476" cy="12.779" r="6.066" fill="#C77485"/>
                    <path fill="#000" d="M26.384 23.649l-.142-.555-.122-.488-.18-.721-.033-.133-.028-.111s.144-.436-.807-.294l-.178.03c-.15.03-.324.072-.524.128l-.18.055-.239.075c-.755.246-1.444.662-2.014 1.215-.255.245-.482.518-.674.815-.02.028-.033.053-.05.075-.065.103-.124.21-.174.322 0 2.186-2.186 4.854-2.186 4.854l-2.133-3.082-.042-.06-.507-.738-.18-.239-.062-.083-1.109-1.49-.277-.371-.092-.125-.136-.18-.319-.425-1.248.73-1.664.97-.971 6.31v.175l.03.522.203 3.428v.047l-.355 1.42.053.028c.837.452 1.71.838 2.607 1.154l.236.083c.277.092.538.175.81.256.01.04.017.082.022.124v-.119c3.403.973 7.012.973 10.415 0l.064-.02c.158-.044.319-.09.474-.144l.253-.08c.684-.229 1.355-.497 2.008-.804l.233-4.965.166-3.581v-.205l-.948-3.803z" opacity=".1"/>
                    <path fill="#FFF" d="M24.387 32.871c0-.11 0-.222-.02-.332-.02-.111-.016-.208-.03-.314-.014-.105-.025-.21-.04-.316-.013-.105-.032-.21-.052-.316l-.06-.317c0-.036-.015-.069-.023-.105-.03-.139-.064-.277-.1-.419-.036-.141-.058-.224-.091-.335 0-.05-.028-.1-.045-.147-.017-.048-.047-.161-.072-.242l-.05-.155c-.022-.07-.044-.139-.07-.208-.04-.125-.085-.247-.13-.372-.044-.125-.091-.247-.138-.369-.095-.25-.197-.496-.3-.743-.402-.96-.854-1.906-1.27-2.843-.224-.492-.422-.994-.594-1.506l-.053.075c-.084.127-.159.26-.224.4 0 2.182-2.186 4.853-2.186 4.853l-2.2-3.204-1.924 2.96c-.278.147-.555.652-.771 1.37-.062.194-.12.405-.175.63-.04.15-.075.308-.108.466-.02.08-.036.16-.053.244l-.05.252v.04c-.033.171-.067.349-.097.529-.03.18-.067.388-.097.585-.022.128-.042.255-.058.383-.04.247-.073.497-.106.743-.02.145-.039.278-.055.43l-.067.555c.142.455.3.904.463 1.345.105.242.166.5.18.763 3.404.973 7.012.973 10.416 0v-.028c-.051-.249-.074-.503-.067-.757.056-.711.149-1.42.278-2.122.04-.346.058-.694.052-1.043v-.125c-.008-.105-.01-.205-.013-.305zm0 0c0-.11 0-.222-.02-.332-.02-.111-.016-.208-.03-.314-.014-.105-.025-.21-.04-.316-.013-.105-.032-.21-.052-.316l-.06-.317c0-.036-.015-.069-.023-.105-.03-.139-.064-.277-.1-.419-.036-.141-.058-.224-.091-.335 0-.05-.028-.1-.045-.147-.017-.048-.047-.161-.072-.242l-.05-.155c-.022-.07-.044-.139-.07-.208-.04-.125-.085-.247-.13-.372-.044-.125-.091-.247-.138-.369-.095-.25-.197-.496-.3-.743-.402-.96-.854-1.906-1.27-2.843-.224-.492-.422-.994-.594-1.506l-.053.075c-.084.127-.159.26-.224.4 0 2.182-2.186 4.853-2.186 4.853l-2.2-3.204-1.924 2.96c-.278.147-.555.652-.771 1.37-.062.194-.12.405-.175.63-.04.15-.075.308-.108.466-.02.08-.036.16-.053.244l-.05.252v.04c-.033.171-.067.349-.097.529-.03.18-.067.388-.097.585-.022.128-.042.255-.058.383-.04.247-.073.497-.106.743-.02.145-.039.278-.055.43l-.067.555c.142.455.3.904.463 1.345.105.242.166.5.18.763 3.404.973 7.012.973 10.416 0v-.028c-.051-.249-.074-.503-.067-.757.056-.711.149-1.42.278-2.122.04-.346.058-.694.052-1.043v-.125c-.008-.105-.01-.205-.013-.305zm0 0c0-.11 0-.222-.02-.332-.02-.111-.016-.208-.03-.314-.014-.105-.025-.21-.04-.316-.013-.105-.032-.21-.052-.316l-.06-.317c0-.036-.015-.069-.023-.105-.03-.139-.064-.277-.1-.419-.036-.141-.058-.224-.091-.335 0-.05-.028-.1-.045-.147-.017-.048-.047-.161-.072-.242l-.05-.155c-.022-.07-.044-.139-.07-.208-.04-.125-.085-.247-.13-.372-.044-.125-.091-.247-.138-.369-.095-.25-.197-.496-.3-.743-.402-.96-.854-1.906-1.27-2.843-.224-.492-.422-.994-.594-1.506l-.053.075c-.084.127-.159.26-.224.4 0 2.182-2.186 4.853-2.186 4.853l-2.2-3.204-1.924 2.96c-.278.147-.555.652-.771 1.37-.062.194-.12.405-.175.63-.04.15-.075.308-.108.466-.02.08-.036.16-.053.244l-.05.252v.04c-.033.171-.067.349-.097.529-.03.18-.067.388-.097.585-.022.128-.042.255-.058.383-.04.247-.073.497-.106.743-.02.145-.039.278-.055.43l-.067.555c.142.455.3.904.463 1.345.105.242.166.5.18.763 3.404.973 7.012.973 10.416 0v-.028c-.051-.249-.074-.503-.067-.757.056-.711.149-1.42.278-2.122.04-.346.058-.694.052-1.043v-.125c-.008-.105-.01-.205-.013-.305zm2.94-5.206l-.99-3.952-.17-.677-.047-.186-.241-.965v-.025c.006-.043-.001-.086-.02-.125-.036-.072-.127-.147-.34-.167-.082-.005-.164-.005-.245 0-.24.024-.48.069-.713.134-.113.03-.235.063-.366.105l-.238.075h-.023c-.638.21-1.231.539-1.747.97-.34.285-.64.615-.888.983l-.052.074c-.085.128-.16.262-.225.4 0 2.183-2.186 4.854-2.186 4.854l-2.2-3.204-.124-.18-.022-.03-.32-.47-.24-.321-.064-.083-1.138-1.517-.36-.491v-.017l-.125-.17-.238-.315-.833.485-2.08 1.212-.96 6.244v.066l.028.455.205 3.476v.197l-.313 1.25c.838.452 1.71.838 2.607 1.154l.236.084c.277.091.538.174.81.255.01.04.017.083.022.125v-.12c3.404.973 7.012.973 10.415 0l.064-.02c.158-.043.32-.09.475-.143l.252-.08c.684-.23 1.355-.498 2.008-.805l.23-4.96.167-3.542-.011-.033zm-13.641 9.578c.01.04.017.083.022.125v-.12l-.022-.005zm10.7-4.372c0-.11 0-.222-.019-.332-.02-.111-.016-.208-.03-.314-.014-.105-.025-.21-.04-.316-.013-.105-.032-.21-.052-.316l-.06-.317c0-.036-.015-.069-.023-.105-.03-.139-.064-.277-.1-.419-.036-.141-.058-.224-.091-.335 0-.05-.028-.1-.045-.147-.017-.048-.047-.161-.072-.242l-.05-.155c-.022-.07-.044-.139-.07-.208-.04-.125-.085-.247-.13-.372-.044-.125-.091-.247-.138-.369-.095-.25-.197-.496-.3-.743-.402-.96-.854-1.906-1.27-2.843-.224-.492-.422-.994-.594-1.506l-.053.075c-.084.127-.159.26-.224.4 0 2.182-2.186 4.853-2.186 4.853l-2.2-3.204-1.924 2.96c-.278.147-.555.652-.771 1.37-.062.194-.12.405-.175.63-.04.15-.075.308-.108.466-.02.08-.036.16-.053.244l-.05.252v.04c-.033.171-.067.349-.097.529-.03.18-.067.388-.097.585-.022.128-.042.255-.058.383-.04.247-.073.497-.106.743-.02.145-.039.278-.055.43l-.067.555c.142.455.3.904.463 1.345.105.242.166.5.18.763 3.404.973 7.012.973 10.416 0v-.028c-.051-.249-.074-.503-.067-.757.056-.711.149-1.42.278-2.122.04-.346.058-.694.052-1.043v-.125c-.008-.105-.01-.205-.013-.305zm0 0c0-.11 0-.222-.019-.332-.02-.111-.016-.208-.03-.314-.014-.105-.025-.21-.04-.316-.013-.105-.032-.21-.052-.316l-.06-.317c0-.036-.015-.069-.023-.105-.03-.139-.064-.277-.1-.419-.036-.141-.058-.224-.091-.335 0-.05-.028-.1-.045-.147-.017-.048-.047-.161-.072-.242l-.05-.155c-.022-.07-.044-.139-.07-.208-.04-.125-.085-.247-.13-.372-.044-.125-.091-.247-.138-.369-.095-.25-.197-.496-.3-.743-.402-.96-.854-1.906-1.27-2.843-.224-.492-.422-.994-.594-1.506l-.053.075c-.084.127-.159.26-.224.4 0 2.182-2.186 4.853-2.186 4.853l-2.2-3.204-1.924 2.96c-.278.147-.555.652-.771 1.37-.062.194-.12.405-.175.63-.04.15-.075.308-.108.466-.02.08-.036.16-.053.244l-.05.252v.04c-.033.171-.067.349-.097.529-.03.18-.067.388-.097.585-.022.128-.042.255-.058.383-.04.247-.073.497-.106.743-.02.145-.039.278-.055.43l-.067.555c.142.455.3.904.463 1.345.105.242.166.5.18.763 3.404.973 7.012.973 10.416 0v-.028c-.051-.249-.074-.503-.067-.757.056-.711.149-1.42.278-2.122.04-.346.058-.694.052-1.043v-.125c-.008-.105-.01-.205-.013-.305zm0 0c0-.11 0-.222-.019-.332-.02-.111-.016-.208-.03-.314-.014-.105-.025-.21-.04-.316-.013-.105-.032-.21-.052-.316l-.06-.317c0-.036-.015-.069-.023-.105-.03-.139-.064-.277-.1-.419-.036-.141-.058-.224-.091-.335 0-.05-.028-.1-.045-.147-.017-.048-.047-.161-.072-.242l-.05-.155c-.022-.07-.044-.139-.07-.208-.04-.125-.085-.247-.13-.372-.044-.125-.091-.247-.138-.369-.095-.25-.197-.496-.3-.743-.402-.96-.854-1.906-1.27-2.843-.224-.492-.422-.994-.594-1.506l-.053.075c-.084.127-.159.26-.224.4 0 2.182-2.186 4.853-2.186 4.853l-2.2-3.204-1.924 2.96c-.278.147-.555.652-.771 1.37-.062.194-.12.405-.175.63-.04.15-.075.308-.108.466-.02.08-.036.16-.053.244l-.05.252v.04c-.033.171-.067.349-.097.529-.03.18-.067.388-.097.585-.022.128-.042.255-.058.383-.04.247-.073.497-.106.743-.02.145-.039.278-.055.43l-.067.555c.142.455.3.904.463 1.345.105.242.166.5.18.763 3.404.973 7.012.973 10.416 0v-.028c-.051-.249-.074-.503-.067-.757.056-.711.149-1.42.278-2.122.04-.346.058-.694.052-1.043v-.125c-.008-.105-.01-.205-.013-.305zm0 0c0-.11 0-.222-.019-.332-.02-.111-.016-.208-.03-.314-.014-.105-.025-.21-.04-.316-.013-.105-.032-.21-.052-.316l-.06-.317c0-.036-.015-.069-.023-.105-.03-.139-.064-.277-.1-.419-.036-.141-.058-.224-.091-.335 0-.05-.028-.1-.045-.147-.017-.048-.047-.161-.072-.242l-.05-.155c-.022-.07-.044-.139-.07-.208-.04-.125-.085-.247-.13-.372-.044-.125-.091-.247-.138-.369-.095-.25-.197-.496-.3-.743-.402-.96-.854-1.906-1.27-2.843-.224-.492-.422-.994-.594-1.506l-.053.075c-.084.127-.159.26-.224.4 0 2.182-2.186 4.853-2.186 4.853l-2.2-3.204-1.924 2.96c-.278.147-.555.652-.771 1.37-.062.194-.12.405-.175.63-.04.15-.075.308-.108.466-.02.08-.036.16-.053.244l-.05.252v.04c-.033.171-.067.349-.097.529-.03.18-.067.388-.097.585-.022.128-.042.255-.058.383-.04.247-.073.497-.106.743-.02.145-.039.278-.055.43l-.067.555c.142.455.3.904.463 1.345.105.242.166.5.18.763 3.404.973 7.012.973 10.416 0v-.028c-.051-.249-.074-.503-.067-.757.056-.711.149-1.42.278-2.122.04-.346.058-.694.052-1.043v-.125c-.008-.105-.01-.205-.013-.305zm0 0c0-.11 0-.222-.019-.332-.02-.111-.016-.208-.03-.314-.014-.105-.025-.21-.04-.316-.013-.105-.032-.21-.052-.316l-.06-.317c0-.036-.015-.069-.023-.105-.03-.139-.064-.277-.1-.419-.036-.141-.058-.224-.091-.335 0-.05-.028-.1-.045-.147-.017-.048-.047-.161-.072-.242l-.05-.155c-.022-.07-.044-.139-.07-.208-.04-.125-.085-.247-.13-.372-.044-.125-.091-.247-.138-.369-.095-.25-.197-.496-.3-.743-.402-.96-.854-1.906-1.27-2.843-.224-.492-.422-.994-.594-1.506l-.053.075c-.084.127-.159.26-.224.4 0 2.182-2.186 4.853-2.186 4.853l-2.2-3.204-1.924 2.96c-.278.147-.555.652-.771 1.37-.062.194-.12.405-.175.63-.04.15-.075.308-.108.466-.02.08-.036.16-.053.244l-.05.252v.04c-.033.171-.067.349-.097.529-.03.18-.067.388-.097.585-.022.128-.042.255-.058.383-.04.247-.073.497-.106.743-.02.145-.039.278-.055.43l-.067.555c.142.455.3.904.463 1.345.105.242.166.5.18.763 3.404.973 7.012.973 10.416 0v-.028c-.051-.249-.074-.503-.067-.757.056-.711.149-1.42.278-2.122.04-.346.058-.694.052-1.043v-.125c-.008-.105-.01-.205-.013-.305zm0 0c0-.11 0-.222-.019-.332-.02-.111-.016-.208-.03-.314-.014-.105-.025-.21-.04-.316-.013-.105-.032-.21-.052-.316l-.06-.317c0-.036-.015-.069-.023-.105-.03-.139-.064-.277-.1-.419-.036-.141-.058-.224-.091-.335 0-.05-.028-.1-.045-.147-.017-.048-.047-.161-.072-.242l-.05-.155c-.022-.07-.044-.139-.07-.208-.04-.125-.085-.247-.13-.372-.044-.125-.091-.247-.138-.369-.095-.25-.197-.496-.3-.743-.402-.96-.854-1.906-1.27-2.843-.224-.492-.422-.994-.594-1.506l-.053.075c-.084.127-.159.26-.224.4 0 2.182-2.186 4.853-2.186 4.853l-2.2-3.204-1.924 2.96c-.278.147-.555.652-.771 1.37-.062.194-.12.405-.175.63-.04.15-.075.308-.108.466-.02.08-.036.16-.053.244l-.05.252v.04c-.033.171-.067.349-.097.529-.03.18-.067.388-.097.585-.022.128-.042.255-.058.383-.04.247-.073.497-.106.743-.02.145-.039.278-.055.43l-.067.555c.142.455.3.904.463 1.345.105.242.166.5.18.763 3.404.973 7.012.973 10.416 0v-.028c-.051-.249-.074-.503-.067-.757.056-.711.149-1.42.278-2.122.04-.346.058-.694.052-1.043v-.125c-.008-.105-.01-.205-.013-.305zm0 0c0-.11 0-.222-.019-.332-.02-.111-.016-.208-.03-.314-.014-.105-.025-.21-.04-.316-.013-.105-.032-.21-.052-.316l-.06-.317c0-.036-.015-.069-.023-.105-.03-.139-.064-.277-.1-.419-.036-.141-.058-.224-.091-.335 0-.05-.028-.1-.045-.147-.017-.048-.047-.161-.072-.242l-.05-.155c-.022-.07-.044-.139-.07-.208-.04-.125-.085-.247-.13-.372-.044-.125-.091-.247-.138-.369-.095-.25-.197-.496-.3-.743-.402-.96-.854-1.906-1.27-2.843-.224-.492-.422-.994-.594-1.506l-.053.075c-.084.127-.159.26-.224.4 0 2.182-2.186 4.853-2.186 4.853l-2.2-3.204-1.924 2.96c-.278.147-.555.652-.771 1.37-.062.194-.12.405-.175.63-.04.15-.075.308-.108.466-.02.08-.036.16-.053.244l-.05.252v.04c-.033.171-.067.349-.097.529-.03.18-.067.388-.097.585-.022.128-.042.255-.058.383-.04.247-.073.497-.106.743-.02.145-.039.278-.055.43l-.067.555c.142.455.3.904.463 1.345.105.242.166.5.18.763 3.404.973 7.012.973 10.416 0v-.028c-.051-.249-.074-.503-.067-.757.056-.711.149-1.42.278-2.122.04-.346.058-.694.052-1.043v-.125c-.008-.105-.01-.205-.013-.305zm0 0c0-.11 0-.222-.019-.332-.02-.111-.016-.208-.03-.314-.014-.105-.025-.21-.04-.316-.013-.105-.032-.21-.052-.316l-.06-.317c0-.036-.015-.069-.023-.105-.03-.139-.064-.277-.1-.419-.036-.141-.058-.224-.091-.335 0-.05-.028-.1-.045-.147-.017-.048-.047-.161-.072-.242l-.05-.155c-.022-.07-.044-.139-.07-.208-.04-.125-.085-.247-.13-.372-.044-.125-.091-.247-.138-.369-.095-.25-.197-.496-.3-.743-.402-.96-.854-1.906-1.27-2.843-.224-.492-.422-.994-.594-1.506l-.053.075c-.084.127-.159.26-.224.4 0 2.182-2.186 4.853-2.186 4.853l-2.2-3.204-1.924 2.96c-.278.147-.555.652-.771 1.37-.062.194-.12.405-.175.63-.04.15-.075.308-.108.466-.02.08-.036.16-.053.244l-.05.252v.04c-.033.171-.067.349-.097.529-.03.18-.067.388-.097.585-.022.128-.042.255-.058.383-.04.247-.073.497-.106.743-.02.145-.039.278-.055.43l-.067.555c.142.455.3.904.463 1.345.105.242.166.5.18.763 3.404.973 7.012.973 10.416 0v-.028c-.051-.249-.074-.503-.067-.757.056-.711.149-1.42.278-2.122.04-.346.058-.694.052-1.043v-.125c-.008-.105-.01-.205-.013-.305z"/>
                    <path fill="#000" d="M16.678 25.77l-.185-.024c-.281-.038-.559-.094-.833-.167l-.102-.027c-.677-.192-1.418-.536-1.584-1.14-.05-.195-.044-.4.017-.591.093-.33.22-.65.377-.954v-.017c.02-.043.044-.085.07-.125.228-.447.574-.824 1-1.09l-.332.053-2.818.457-4.369.705s-.777-.155-1.833 2.757c0 .036-.025.07-.037.108-.255.713-.524 1.603-.801 2.716-.192.77-.366 1.528-.527 2.263l-.139.657c.5.59 1.039 1.146 1.612 1.665l.091.086c1.123 1.016 2.363 1.894 3.695 2.615l.053.028c.837.452 1.71.838 2.607 1.154l.236.083c.05-.513.105-1.082.172-1.664 0-.058 0-.117.022-.175l.066-.555c.017-.141.036-.277.056-.43.033-.246.066-.496.105-.743.017-.128.036-.255.058-.383.031-.197.064-.394.098-.585.033-.191.063-.358.097-.53v-.039l.05-.252c.016-.083.033-.164.052-.244.034-.158.07-.316.108-.466.056-.225.114-.436.175-.63.222-.718.48-1.223.771-1.37l1.925-2.96.08-.124.037-.056-.07-.005z" opacity=".1"/>
                    <path fill="#444176" d="M16.515 25.776l-2.044 3.14c-.278.142-.539.632-.758 1.329-.064.205-.127.43-.188.665-.276 1.198-.486 2.41-.627 3.631 0 .056 0 .111-.022.167-.095.77-.172 1.528-.236 2.196-.898-.316-1.77-.702-2.607-1.153l-.053-.028c-1.332-.721-2.572-1.6-3.695-2.616l-.091-.086c-.573-.519-1.112-1.075-1.612-1.664-.066-.075-.13-.153-.194-.23.03-.145.061-.278.094-.433.158-.735.333-1.49.525-2.258.252-1.053.567-2.09.943-3.106.01-.03.022-.06.036-.09.982-2.526 1.689-2.385 1.689-2.385l4.613-.743 2.912-.471-.092.052c-.321.229-.594.52-.801.855l-.08.136c-.034.052-.064.11-.098.169-.161.309-.29.634-.382.97-.087.263-.063.55.066.794.278.538 1.065.832 1.712.993l.108.028c.29.065.585.11.882.138z"/>
                    <path fill="#000" d="M32.544 31.382l-.114-2.463c.486-3.883-.485-4.125-.485-4.125l-1.154-.554h-.03l-4.64-2.25-.181-.089-.056-.025-.604-.294-.383-.186-.716-.346-.241-.117v.963c0 .277.025.602.047.979.05.949.142 2.219.305 3.717.092.868.208 1.816.353 2.834.086.602.147 1.201.185 1.787.125 1.97.064 3.949-.183 5.908l.253-.08c.684-.23 1.355-.498 2.008-.805 1.272-.594 2.473-1.33 3.578-2.197l.05-.036c.715-.559 1.388-1.17 2.014-1.828l-.006-.793z" opacity=".1"/>
                    <path fill="#444176" d="M32.788 31.382l-.114-2.469c.486-3.883-.485-4.124-.485-4.124l-1.387-.671h-.028L26.12 21.86l-.213-.103-.042-.02-.341-.166-.452-.219-.893-.433v.882c0 .278.025.641.05 1.054.047.885.13 2.045.277 3.423.1.946.225 1.997.388 3.129.085.605.146 1.203.183 1.795.124 1.942.066 3.892-.172 5.824.685-.228 1.355-.497 2.008-.804 1.273-.594 2.473-1.33 3.579-2.197l.05-.036c.715-.559 1.388-1.17 2.013-1.828.082-.081.16-.164.233-.25v-.53z"/>
                    <path fill="#000" d="M13.175 6.124c-.277.383-.255.91-.38 1.387-.297 1.085-1.473 1.764-1.742 2.857-.158.638.025 1.315-.083 1.964-.197 1.195-1.29 2.005-1.9 3.051-.627 1.091-.72 2.41-.252 3.578.142.291.26.594.352.904.07.464.04.936-.086 1.387-.208.988-.422 2.075.055 2.965.403.752 1.237 1.193 2.078 1.332.849.096 1.707.056 2.543-.117.919-.141 1.859-.305 2.658-.776l-3.004-7.25c-.303-.733-.613-1.49-.61-2.284.024-.585.15-1.161.374-1.703.582-1.569 1.426-3.027 2.496-4.313.436.505.402 1.273.766 1.834.32.414.749.733 1.237.923 1.423.695 2.886 1.306 4.38 1.83.19.025.356.142.442.314.085.171.08.375-.015.541l-1.132 4.671c-.25 1.03-.469 2.22.172 3.051.64.832 2.086 1.226 2.094 2.3-.012.17-.012.34 0 .51.075.502.671.743 1.18.768 1.72.034 3.212-1.183 3.524-2.876.278-1.836-.937-3.528-1.445-5.317-.854-3.01.278-6.54-1.4-9.184-1.36-2.144-3.836-2.727-6.189-2.993-1.65-.194-4.95-.887-6.113.646z" opacity=".1"/>
                    <path fill="#493545" d="M13.175 5.847c-.277.383-.255.91-.38 1.387-.297 1.084-1.473 1.764-1.742 2.857-.158.638.025 1.315-.083 1.964-.197 1.195-1.29 2.005-1.9 3.05-.627 1.092-.72 2.41-.252 3.579.142.29.26.593.352.904.07.463.04.936-.086 1.387-.208.987-.422 2.075.055 2.965.403.752 1.237 1.193 2.078 1.331.849.096 1.707.057 2.543-.116.919-.142 1.859-.305 2.658-.777l-3.004-7.25c-.303-.733-.613-1.49-.61-2.283.024-.585.15-1.162.374-1.703.582-1.569 1.426-3.027 2.496-4.313.436.505.402 1.273.766 1.833.32.414.749.734 1.237.924 1.423.694 2.886 1.305 4.38 1.83.19.024.356.142.442.313.085.172.08.375-.015.542l-1.132 4.67c-.25 1.03-.469 2.22.172 3.052.64.832 2.086 1.226 2.094 2.3-.012.17-.012.34 0 .51.075.502.671.743 1.18.768 1.72.034 3.212-1.184 3.524-2.876.278-1.837-.937-3.529-1.445-5.318-.854-3.01.278-6.54-1.4-9.183-1.36-2.145-3.836-2.727-6.189-2.993-1.65-.194-4.95-.888-6.113.646z"/>
                </g>
                <g opacity=".5" transform="translate(121 157)">
                    <path fill="#C0BCCF" d="M37.8 19.122c.008 4.503-1.604 8.86-4.54 12.274-.145.169-.294.335-.447.499-.076.085-.153.168-.233.25-.625.658-1.298 1.268-2.014 1.828l-.05.036c-1.105.866-2.305 1.603-3.578 2.196-.653.307-1.323.576-2.008.805l-.252.08c-.156.053-.316.1-.474.144l-.064.02c-3.404.973-7.012.973-10.416 0h-.027c-.278-.08-.555-.164-.81-.255l-.236-.084c-.898-.316-1.77-.702-2.607-1.153l-.053-.028c-1.332-.721-2.572-1.6-3.695-2.616l-.091-.086c-.573-.519-1.112-1.074-1.612-1.664-.066-.075-.13-.153-.194-.23-.122-.144-.238-.294-.355-.444-5.059-6.512-5.3-15.554-.598-22.328 4.702-6.773 13.26-9.707 21.128-7.243C32.444 3.587 37.8 10.876 37.8 19.122z"/>
                    <path fill="url(#9wfbtvpmsc)" d="M32.788 31.276l-.114-2.496c.486-3.947-.485-4.194-.485-4.194l-1.387-.682-.028-.014-4.654-2.294-.213-.105-.028-.114s.091-.277-.37-.324c-.088-.225-.128-.466-.116-.708.048-.532.45-.951.763-1.387.8-1.184 1.127-2.627.913-4.04-.218-1.402-.747-2.736-1.548-3.906l-.089-.13c.109-.4.164-.813.164-1.227 0-3.192-3.229-5.78-7.212-5.78-3.606 0-6.61 2.133-7.131 4.915-.082.108-.155.224-.22.344-.731 1.37.4 2.394.436 3.761.025.943-.607 1.75-1.11 2.55-.501.798-.873 1.86-.357 2.648.17.26.424.458.577.73.535.945-.355 2.03-.68 3.067-.037.121-.067.244-.088.37l-2.142.349s-.707-.145-1.689 2.424c-.014.03-.026.06-.036.091-.376 1.034-.69 2.089-.943 3.16-.191.782-.366 1.547-.524 2.294-.033.147-.064.294-.095.44.064.078.128.159.195.234.499.6 1.037 1.167 1.611 1.697l.092.089c1.12 1.032 2.36 1.925 3.694 2.66l.053.028c.837.459 1.709.85 2.607 1.173l.236.083c.277.094.538.178.81.26.01.043.018.085.022.128v-.122c3.402.99 7.014.99 10.416 0l.063-.02c.158-.043.32-.093.475-.146l.252-.08c.685-.234 1.355-.507 2.008-.819 1.275-.604 2.475-1.354 3.578-2.233l.05-.036c.716-.569 1.39-1.19 2.014-1.858.081-.081.159-.166.233-.252l-.003-.528z"/>
                    <path fill="#444176" d="M11.47 13.294c.024.93-.608 1.723-1.11 2.497-.502.774-.874 1.83-.358 2.604.17.256.424.452.577.719.535.929-.355 1.997-.68 3.018-.374 1.178.061 2.496.85 3.453.787.957 1.874 1.603 2.973 2.172 2.31 1.23 4.788 2.113 7.356 2.618 1.342.247 2.773.358 4.033-.18 1.798-.825 2.798-2.773 2.421-4.716-.319-1.459-1.387-2.632-1.942-4.01-.13-.271-.192-.569-.183-.869.047-.524.45-.934.763-1.359.786-1.155 1.107-2.565.899-3.947-.22-1.382-.748-2.696-1.548-3.844-.286-.476-.663-.89-1.11-1.22-.604-.408-1.353-.525-2.074-.627-3.012-.422-6.133-.882-9.17-1.038-.96-.05-1.664.139-2.139 1.038-.724 1.34.405 2.346.441 3.691z"/>
                    <path fill="#C77485" d="M26.983 22.728l-5.717 8.13-5.58-.486s-.184 1.942-2.428-5.095c-1.253-3.936 1.296-2.569 1.798-3.659.502-1.09 1.387-2.052 1.462-2.857.177-1.725-.347-2.707-.347-2.707l6.066-.726c-.274.817-.308 1.696-.1 2.532.76 3.156 4.846 4.868 4.846 4.868z"/>
                    <ellipse cx="18.384" cy="10.11" fill="#444176" rx="7.212" ry="5.686"/>
                    <path fill="#000" d="M22.134 17.857c-1.606 1.217-3.712 1.556-5.62.904.178-1.725-.346-2.707-.346-2.707l6.066-.726c-.273.816-.308 1.694-.1 2.53z" opacity=".1"/>
                    <circle cx="18.476" cy="12.779" r="6.066" fill="#C77485"/>
                    <path fill="#000" d="M26.384 23.649l-.142-.555-.122-.488-.18-.721-.033-.133-.028-.111s.144-.436-.807-.294l-.178.03c-.15.03-.324.072-.524.128l-.18.055-.239.075c-.755.246-1.444.662-2.014 1.215-.255.245-.482.518-.674.815-.02.028-.033.053-.05.075-.065.103-.124.21-.174.322 0 2.186-2.186 4.854-2.186 4.854l-2.133-3.082-.042-.06-.507-.738-.18-.239-.062-.083-1.109-1.49-.277-.371-.092-.125-.136-.18-.319-.425-1.248.73-1.664.97-.971 6.31v.175l.03.522.203 3.428v.047l-.355 1.42.053.028c.837.452 1.71.838 2.607 1.154l.236.083c.277.092.538.175.81.256.01.04.017.082.022.124v-.119c3.403.973 7.012.973 10.415 0l.064-.02c.158-.044.319-.09.474-.144l.253-.08c.684-.229 1.355-.497 2.008-.804l.233-4.965.166-3.581v-.205l-.948-3.803z" opacity=".1"/>
                    <path fill="#444176" d="M24.387 32.871c0-.11 0-.222-.02-.332-.02-.111-.016-.208-.03-.314-.014-.105-.025-.21-.04-.316-.013-.105-.032-.21-.052-.316l-.06-.317c0-.036-.015-.069-.023-.105-.03-.139-.064-.277-.1-.419-.036-.141-.058-.224-.091-.335 0-.05-.028-.1-.045-.147-.017-.048-.047-.161-.072-.242l-.05-.155c-.022-.07-.044-.139-.07-.208-.04-.125-.085-.247-.13-.372-.044-.125-.091-.247-.138-.369-.095-.25-.197-.496-.3-.743-.402-.96-.854-1.906-1.27-2.843-.224-.492-.422-.994-.594-1.506l-.053.075c-.084.127-.159.26-.224.4 0 2.182-2.186 4.853-2.186 4.853l-2.2-3.204-1.924 2.96c-.278.147-.555.652-.771 1.37-.062.194-.12.405-.175.63-.04.15-.075.308-.108.466-.02.08-.036.16-.053.244l-.05.252v.04c-.033.171-.067.349-.097.529-.03.18-.067.388-.097.585-.022.128-.042.255-.058.383-.04.247-.073.497-.106.743-.02.145-.039.278-.055.43l-.067.555c.142.455.3.904.463 1.345.105.242.166.5.18.763 3.404.973 7.012.973 10.416 0v-.028c-.051-.249-.074-.503-.067-.757.056-.711.149-1.42.278-2.122.04-.346.058-.694.052-1.043v-.125c-.008-.105-.01-.205-.013-.305zm0 0c0-.11 0-.222-.02-.332-.02-.111-.016-.208-.03-.314-.014-.105-.025-.21-.04-.316-.013-.105-.032-.21-.052-.316l-.06-.317c0-.036-.015-.069-.023-.105-.03-.139-.064-.277-.1-.419-.036-.141-.058-.224-.091-.335 0-.05-.028-.1-.045-.147-.017-.048-.047-.161-.072-.242l-.05-.155c-.022-.07-.044-.139-.07-.208-.04-.125-.085-.247-.13-.372-.044-.125-.091-.247-.138-.369-.095-.25-.197-.496-.3-.743-.402-.96-.854-1.906-1.27-2.843-.224-.492-.422-.994-.594-1.506l-.053.075c-.084.127-.159.26-.224.4 0 2.182-2.186 4.853-2.186 4.853l-2.2-3.204-1.924 2.96c-.278.147-.555.652-.771 1.37-.062.194-.12.405-.175.63-.04.15-.075.308-.108.466-.02.08-.036.16-.053.244l-.05.252v.04c-.033.171-.067.349-.097.529-.03.18-.067.388-.097.585-.022.128-.042.255-.058.383-.04.247-.073.497-.106.743-.02.145-.039.278-.055.43l-.067.555c.142.455.3.904.463 1.345.105.242.166.5.18.763 3.404.973 7.012.973 10.416 0v-.028c-.051-.249-.074-.503-.067-.757.056-.711.149-1.42.278-2.122.04-.346.058-.694.052-1.043v-.125c-.008-.105-.01-.205-.013-.305zm0 0c0-.11 0-.222-.02-.332-.02-.111-.016-.208-.03-.314-.014-.105-.025-.21-.04-.316-.013-.105-.032-.21-.052-.316l-.06-.317c0-.036-.015-.069-.023-.105-.03-.139-.064-.277-.1-.419-.036-.141-.058-.224-.091-.335 0-.05-.028-.1-.045-.147-.017-.048-.047-.161-.072-.242l-.05-.155c-.022-.07-.044-.139-.07-.208-.04-.125-.085-.247-.13-.372-.044-.125-.091-.247-.138-.369-.095-.25-.197-.496-.3-.743-.402-.96-.854-1.906-1.27-2.843-.224-.492-.422-.994-.594-1.506l-.053.075c-.084.127-.159.26-.224.4 0 2.182-2.186 4.853-2.186 4.853l-2.2-3.204-1.924 2.96c-.278.147-.555.652-.771 1.37-.062.194-.12.405-.175.63-.04.15-.075.308-.108.466-.02.08-.036.16-.053.244l-.05.252v.04c-.033.171-.067.349-.097.529-.03.18-.067.388-.097.585-.022.128-.042.255-.058.383-.04.247-.073.497-.106.743-.02.145-.039.278-.055.43l-.067.555c.142.455.3.904.463 1.345.105.242.166.5.18.763 3.404.973 7.012.973 10.416 0v-.028c-.051-.249-.074-.503-.067-.757.056-.711.149-1.42.278-2.122.04-.346.058-.694.052-1.043v-.125c-.008-.105-.01-.205-.013-.305zm2.94-5.206l-.99-3.952-.17-.677-.047-.186-.241-.965v-.025c.006-.043-.001-.086-.02-.125-.036-.072-.127-.147-.34-.167-.082-.005-.164-.005-.245 0-.24.024-.48.069-.713.134-.113.03-.235.063-.366.105l-.238.075h-.023c-.638.21-1.231.539-1.747.97-.34.285-.64.615-.888.983l-.052.074c-.085.128-.16.262-.225.4 0 2.183-2.186 4.854-2.186 4.854l-2.2-3.204-.124-.18-.022-.03-.32-.47-.24-.321-.064-.083-1.138-1.517-.36-.491v-.017l-.125-.17-.238-.315-.833.485-2.08 1.212-.96 6.244v.066l.028.455.205 3.476v.197l-.313 1.25c.838.452 1.71.838 2.607 1.154l.236.084c.277.091.538.174.81.255.01.04.017.083.022.125v-.12c3.404.973 7.012.973 10.415 0l.064-.02c.158-.043.32-.09.475-.143l.252-.08c.684-.23 1.355-.498 2.008-.805l.23-4.96.167-3.542-.011-.033zm-13.641 9.578c.01.04.017.083.022.125v-.12l-.022-.005zm10.7-4.372c0-.11 0-.222-.019-.332-.02-.111-.016-.208-.03-.314-.014-.105-.025-.21-.04-.316-.013-.105-.032-.21-.052-.316l-.06-.317c0-.036-.015-.069-.023-.105-.03-.139-.064-.277-.1-.419-.036-.141-.058-.224-.091-.335 0-.05-.028-.1-.045-.147-.017-.048-.047-.161-.072-.242l-.05-.155c-.022-.07-.044-.139-.07-.208-.04-.125-.085-.247-.13-.372-.044-.125-.091-.247-.138-.369-.095-.25-.197-.496-.3-.743-.402-.96-.854-1.906-1.27-2.843-.224-.492-.422-.994-.594-1.506l-.053.075c-.084.127-.159.26-.224.4 0 2.182-2.186 4.853-2.186 4.853l-2.2-3.204-1.924 2.96c-.278.147-.555.652-.771 1.37-.062.194-.12.405-.175.63-.04.15-.075.308-.108.466-.02.08-.036.16-.053.244l-.05.252v.04c-.033.171-.067.349-.097.529-.03.18-.067.388-.097.585-.022.128-.042.255-.058.383-.04.247-.073.497-.106.743-.02.145-.039.278-.055.43l-.067.555c.142.455.3.904.463 1.345.105.242.166.5.18.763 3.404.973 7.012.973 10.416 0v-.028c-.051-.249-.074-.503-.067-.757.056-.711.149-1.42.278-2.122.04-.346.058-.694.052-1.043v-.125c-.008-.105-.01-.205-.013-.305zm0 0c0-.11 0-.222-.019-.332-.02-.111-.016-.208-.03-.314-.014-.105-.025-.21-.04-.316-.013-.105-.032-.21-.052-.316l-.06-.317c0-.036-.015-.069-.023-.105-.03-.139-.064-.277-.1-.419-.036-.141-.058-.224-.091-.335 0-.05-.028-.1-.045-.147-.017-.048-.047-.161-.072-.242l-.05-.155c-.022-.07-.044-.139-.07-.208-.04-.125-.085-.247-.13-.372-.044-.125-.091-.247-.138-.369-.095-.25-.197-.496-.3-.743-.402-.96-.854-1.906-1.27-2.843-.224-.492-.422-.994-.594-1.506l-.053.075c-.084.127-.159.26-.224.4 0 2.182-2.186 4.853-2.186 4.853l-2.2-3.204-1.924 2.96c-.278.147-.555.652-.771 1.37-.062.194-.12.405-.175.63-.04.15-.075.308-.108.466-.02.08-.036.16-.053.244l-.05.252v.04c-.033.171-.067.349-.097.529-.03.18-.067.388-.097.585-.022.128-.042.255-.058.383-.04.247-.073.497-.106.743-.02.145-.039.278-.055.43l-.067.555c.142.455.3.904.463 1.345.105.242.166.5.18.763 3.404.973 7.012.973 10.416 0v-.028c-.051-.249-.074-.503-.067-.757.056-.711.149-1.42.278-2.122.04-.346.058-.694.052-1.043v-.125c-.008-.105-.01-.205-.013-.305zm0 0c0-.11 0-.222-.019-.332-.02-.111-.016-.208-.03-.314-.014-.105-.025-.21-.04-.316-.013-.105-.032-.21-.052-.316l-.06-.317c0-.036-.015-.069-.023-.105-.03-.139-.064-.277-.1-.419-.036-.141-.058-.224-.091-.335 0-.05-.028-.1-.045-.147-.017-.048-.047-.161-.072-.242l-.05-.155c-.022-.07-.044-.139-.07-.208-.04-.125-.085-.247-.13-.372-.044-.125-.091-.247-.138-.369-.095-.25-.197-.496-.3-.743-.402-.96-.854-1.906-1.27-2.843-.224-.492-.422-.994-.594-1.506l-.053.075c-.084.127-.159.26-.224.4 0 2.182-2.186 4.853-2.186 4.853l-2.2-3.204-1.924 2.96c-.278.147-.555.652-.771 1.37-.062.194-.12.405-.175.63-.04.15-.075.308-.108.466-.02.08-.036.16-.053.244l-.05.252v.04c-.033.171-.067.349-.097.529-.03.18-.067.388-.097.585-.022.128-.042.255-.058.383-.04.247-.073.497-.106.743-.02.145-.039.278-.055.43l-.067.555c.142.455.3.904.463 1.345.105.242.166.5.18.763 3.404.973 7.012.973 10.416 0v-.028c-.051-.249-.074-.503-.067-.757.056-.711.149-1.42.278-2.122.04-.346.058-.694.052-1.043v-.125c-.008-.105-.01-.205-.013-.305zm0 0c0-.11 0-.222-.019-.332-.02-.111-.016-.208-.03-.314-.014-.105-.025-.21-.04-.316-.013-.105-.032-.21-.052-.316l-.06-.317c0-.036-.015-.069-.023-.105-.03-.139-.064-.277-.1-.419-.036-.141-.058-.224-.091-.335 0-.05-.028-.1-.045-.147-.017-.048-.047-.161-.072-.242l-.05-.155c-.022-.07-.044-.139-.07-.208-.04-.125-.085-.247-.13-.372-.044-.125-.091-.247-.138-.369-.095-.25-.197-.496-.3-.743-.402-.96-.854-1.906-1.27-2.843-.224-.492-.422-.994-.594-1.506l-.053.075c-.084.127-.159.26-.224.4 0 2.182-2.186 4.853-2.186 4.853l-2.2-3.204-1.924 2.96c-.278.147-.555.652-.771 1.37-.062.194-.12.405-.175.63-.04.15-.075.308-.108.466-.02.08-.036.16-.053.244l-.05.252v.04c-.033.171-.067.349-.097.529-.03.18-.067.388-.097.585-.022.128-.042.255-.058.383-.04.247-.073.497-.106.743-.02.145-.039.278-.055.43l-.067.555c.142.455.3.904.463 1.345.105.242.166.5.18.763 3.404.973 7.012.973 10.416 0v-.028c-.051-.249-.074-.503-.067-.757.056-.711.149-1.42.278-2.122.04-.346.058-.694.052-1.043v-.125c-.008-.105-.01-.205-.013-.305zm0 0c0-.11 0-.222-.019-.332-.02-.111-.016-.208-.03-.314-.014-.105-.025-.21-.04-.316-.013-.105-.032-.21-.052-.316l-.06-.317c0-.036-.015-.069-.023-.105-.03-.139-.064-.277-.1-.419-.036-.141-.058-.224-.091-.335 0-.05-.028-.1-.045-.147-.017-.048-.047-.161-.072-.242l-.05-.155c-.022-.07-.044-.139-.07-.208-.04-.125-.085-.247-.13-.372-.044-.125-.091-.247-.138-.369-.095-.25-.197-.496-.3-.743-.402-.96-.854-1.906-1.27-2.843-.224-.492-.422-.994-.594-1.506l-.053.075c-.084.127-.159.26-.224.4 0 2.182-2.186 4.853-2.186 4.853l-2.2-3.204-1.924 2.96c-.278.147-.555.652-.771 1.37-.062.194-.12.405-.175.63-.04.15-.075.308-.108.466-.02.08-.036.16-.053.244l-.05.252v.04c-.033.171-.067.349-.097.529-.03.18-.067.388-.097.585-.022.128-.042.255-.058.383-.04.247-.073.497-.106.743-.02.145-.039.278-.055.43l-.067.555c.142.455.3.904.463 1.345.105.242.166.5.18.763 3.404.973 7.012.973 10.416 0v-.028c-.051-.249-.074-.503-.067-.757.056-.711.149-1.42.278-2.122.04-.346.058-.694.052-1.043v-.125c-.008-.105-.01-.205-.013-.305zm0 0c0-.11 0-.222-.019-.332-.02-.111-.016-.208-.03-.314-.014-.105-.025-.21-.04-.316-.013-.105-.032-.21-.052-.316l-.06-.317c0-.036-.015-.069-.023-.105-.03-.139-.064-.277-.1-.419-.036-.141-.058-.224-.091-.335 0-.05-.028-.1-.045-.147-.017-.048-.047-.161-.072-.242l-.05-.155c-.022-.07-.044-.139-.07-.208-.04-.125-.085-.247-.13-.372-.044-.125-.091-.247-.138-.369-.095-.25-.197-.496-.3-.743-.402-.96-.854-1.906-1.27-2.843-.224-.492-.422-.994-.594-1.506l-.053.075c-.084.127-.159.26-.224.4 0 2.182-2.186 4.853-2.186 4.853l-2.2-3.204-1.924 2.96c-.278.147-.555.652-.771 1.37-.062.194-.12.405-.175.63-.04.15-.075.308-.108.466-.02.08-.036.16-.053.244l-.05.252v.04c-.033.171-.067.349-.097.529-.03.18-.067.388-.097.585-.022.128-.042.255-.058.383-.04.247-.073.497-.106.743-.02.145-.039.278-.055.43l-.067.555c.142.455.3.904.463 1.345.105.242.166.5.18.763 3.404.973 7.012.973 10.416 0v-.028c-.051-.249-.074-.503-.067-.757.056-.711.149-1.42.278-2.122.04-.346.058-.694.052-1.043v-.125c-.008-.105-.01-.205-.013-.305zm0 0c0-.11 0-.222-.019-.332-.02-.111-.016-.208-.03-.314-.014-.105-.025-.21-.04-.316-.013-.105-.032-.21-.052-.316l-.06-.317c0-.036-.015-.069-.023-.105-.03-.139-.064-.277-.1-.419-.036-.141-.058-.224-.091-.335 0-.05-.028-.1-.045-.147-.017-.048-.047-.161-.072-.242l-.05-.155c-.022-.07-.044-.139-.07-.208-.04-.125-.085-.247-.13-.372-.044-.125-.091-.247-.138-.369-.095-.25-.197-.496-.3-.743-.402-.96-.854-1.906-1.27-2.843-.224-.492-.422-.994-.594-1.506l-.053.075c-.084.127-.159.26-.224.4 0 2.182-2.186 4.853-2.186 4.853l-2.2-3.204-1.924 2.96c-.278.147-.555.652-.771 1.37-.062.194-.12.405-.175.63-.04.15-.075.308-.108.466-.02.08-.036.16-.053.244l-.05.252v.04c-.033.171-.067.349-.097.529-.03.18-.067.388-.097.585-.022.128-.042.255-.058.383-.04.247-.073.497-.106.743-.02.145-.039.278-.055.43l-.067.555c.142.455.3.904.463 1.345.105.242.166.5.18.763 3.404.973 7.012.973 10.416 0v-.028c-.051-.249-.074-.503-.067-.757.056-.711.149-1.42.278-2.122.04-.346.058-.694.052-1.043v-.125c-.008-.105-.01-.205-.013-.305zm0 0c0-.11 0-.222-.019-.332-.02-.111-.016-.208-.03-.314-.014-.105-.025-.21-.04-.316-.013-.105-.032-.21-.052-.316l-.06-.317c0-.036-.015-.069-.023-.105-.03-.139-.064-.277-.1-.419-.036-.141-.058-.224-.091-.335 0-.05-.028-.1-.045-.147-.017-.048-.047-.161-.072-.242l-.05-.155c-.022-.07-.044-.139-.07-.208-.04-.125-.085-.247-.13-.372-.044-.125-.091-.247-.138-.369-.095-.25-.197-.496-.3-.743-.402-.96-.854-1.906-1.27-2.843-.224-.492-.422-.994-.594-1.506l-.053.075c-.084.127-.159.26-.224.4 0 2.182-2.186 4.853-2.186 4.853l-2.2-3.204-1.924 2.96c-.278.147-.555.652-.771 1.37-.062.194-.12.405-.175.63-.04.15-.075.308-.108.466-.02.08-.036.16-.053.244l-.05.252v.04c-.033.171-.067.349-.097.529-.03.18-.067.388-.097.585-.022.128-.042.255-.058.383-.04.247-.073.497-.106.743-.02.145-.039.278-.055.43l-.067.555c.142.455.3.904.463 1.345.105.242.166.5.18.763 3.404.973 7.012.973 10.416 0v-.028c-.051-.249-.074-.503-.067-.757.056-.711.149-1.42.278-2.122.04-.346.058-.694.052-1.043v-.125c-.008-.105-.01-.205-.013-.305z"/>
                    <path fill="#000" d="M16.678 25.77l-.185-.024c-.281-.038-.559-.094-.833-.167l-.102-.027c-.677-.192-1.418-.536-1.584-1.14-.05-.195-.044-.4.017-.591.093-.33.22-.65.377-.954v-.017c.02-.043.044-.085.07-.125.228-.447.574-.824 1-1.09l-.332.053-2.818.457-4.369.705s-.777-.155-1.833 2.757c0 .036-.025.07-.037.108-.255.713-.524 1.603-.801 2.716-.192.77-.366 1.528-.527 2.263l-.139.657c.5.59 1.039 1.146 1.612 1.665l.091.086c1.123 1.016 2.363 1.894 3.695 2.615l.053.028c.837.452 1.71.838 2.607 1.154l.236.083c.05-.513.105-1.082.172-1.664 0-.058 0-.117.022-.175l.066-.555c.017-.141.036-.277.056-.43.033-.246.066-.496.105-.743.017-.128.036-.255.058-.383.031-.197.064-.394.098-.585.033-.191.063-.358.097-.53v-.039l.05-.252c.016-.083.033-.164.052-.244.034-.158.07-.316.108-.466.056-.225.114-.436.175-.63.222-.718.48-1.223.771-1.37l1.925-2.96.08-.124.037-.056-.07-.005z" opacity=".1"/>
                    <path fill="#F1D2D7" d="M16.515 25.776l-2.044 3.14c-.278.142-.539.632-.758 1.329-.064.205-.127.43-.188.665-.276 1.198-.486 2.41-.627 3.631 0 .056 0 .111-.022.167-.095.77-.172 1.528-.236 2.196-.898-.316-1.77-.702-2.607-1.153l-.053-.028c-1.332-.721-2.572-1.6-3.695-2.616l-.091-.086c-.573-.519-1.112-1.075-1.612-1.664-.066-.075-.13-.153-.194-.23.03-.145.061-.278.094-.433.158-.735.333-1.49.525-2.258.252-1.053.567-2.09.943-3.106.01-.03.022-.06.036-.09.982-2.526 1.689-2.385 1.689-2.385l4.613-.743 2.912-.471-.092.052c-.321.229-.594.52-.801.855l-.08.136c-.034.052-.064.11-.098.169-.161.309-.29.634-.382.97-.087.263-.063.55.066.794.278.538 1.065.832 1.712.993l.108.028c.29.065.585.11.882.138z"/>
                    <path fill="#000" d="M32.544 31.382l-.114-2.463c.486-3.883-.485-4.125-.485-4.125l-1.154-.554h-.03l-4.64-2.25-.181-.089-.056-.025-.604-.294-.383-.186-.716-.346-.241-.117v.963c0 .277.025.602.047.979.05.949.142 2.219.305 3.717.092.868.208 1.816.353 2.834.086.602.147 1.201.185 1.787.125 1.97.064 3.949-.183 5.908l.253-.08c.684-.23 1.355-.498 2.008-.805 1.272-.594 2.473-1.33 3.578-2.197l.05-.036c.715-.559 1.388-1.17 2.014-1.828l-.006-.793z" opacity=".1"/>
                    <path fill="#F1D2D7" d="M32.788 31.382l-.114-2.469c.486-3.883-.485-4.124-.485-4.124l-1.387-.671h-.028L26.12 21.86l-.213-.103-.042-.02-.341-.166-.452-.219-.893-.433v.882c0 .278.025.641.05 1.054.047.885.13 2.045.277 3.423.1.946.225 1.997.388 3.129.085.605.146 1.203.183 1.795.124 1.942.066 3.892-.172 5.824.685-.228 1.355-.497 2.008-.804 1.273-.594 2.473-1.33 3.579-2.197l.05-.036c.715-.559 1.388-1.17 2.013-1.828.082-.081.16-.164.233-.25v-.53z"/>
                    <path fill="#000" d="M17.142 11.003c.865-.147 1.736-.463 2.596-.277.721.15 1.323.63 1.983.962.637.321 1.335.505 2.047.541.26.034.524-.017.752-.147.344-.238.394-.726.335-1.142-.166-1.182-.904-2.197-1.664-3.118-.303-.394-.653-.748-1.043-1.057-.996-.735-2.313-.86-3.547-.804-1.41.064-2.84.335-4.064 1.043-.832.477-2.74 1.98-2.077 3.067.696 1.138 3.592 1.118 4.682.932z" opacity=".1"/>
                    <path fill="#444176" d="M17.142 10.726c.865-.147 1.736-.463 2.596-.277.721.15 1.323.63 1.983.962.637.32 1.335.505 2.047.541.26.034.524-.018.752-.147.344-.239.394-.727.335-1.143-.166-1.181-.904-2.197-1.664-3.117-.303-.394-.653-.749-1.043-1.057-.996-.735-2.313-.86-3.547-.805-1.41.064-2.84.336-4.064 1.043-.832.477-2.74 1.98-2.077 3.068.696 1.137 3.592 1.118 4.682.932z"/>
                </g>
                <g fill="#E82127">
                    <path d="M2.945.031c-.058.18-.233.321-.455.367h-.71l-.035.01v1.459H1.31V.409L1.27.398h-.71C.338.35.164.21.104.03h2.841" transform="translate(239 137)"/>
                </g>
                <path fill="#000" d="M251 131.8s-6.27.4-8-.8c2.277 1.607 4.966 2.641 7.805 3l.195-2.2z" opacity=".1"/>
                <path fill="url(#d8vu844d4d)" d="M252.615 130.255l-76.162-61.278c-.895-.894-2.11-1.395-3.376-1.393h-3.236c13.424-17.175 11.145-41.813-5.201-56.243-16.347-14.43-41.117-13.671-56.546 1.733-15.43 15.405-16.19 40.136-1.736 56.456 14.453 16.32 39.13 18.595 56.333 5.193v3.228c-.002 1.264.5 2.477 1.395 3.37l76.162 61.278c.89.897 2.103 1.401 3.367 1.401 1.265 0 2.477-.504 3.368-1.4l5.613-5.6c1.864-1.86 1.873-4.874.02-6.745zm-115.35-62.671c-14.043 0-25.427-11.366-25.427-25.386s11.384-25.386 25.426-25.386c14.043 0 25.427 11.366 25.427 25.386.005 6.735-2.672 13.196-7.441 17.958-4.77 4.763-11.24 7.437-17.986 7.434v-.006z"/>
                <path fill="#9F6F5A" d="M252.615 129.255l-76.162-61.278c-.895-.894-2.11-1.395-3.376-1.393h-3.236c13.424-17.175 11.145-41.813-5.201-56.243-16.347-14.43-41.117-13.671-56.546 1.733-15.43 15.405-16.19 40.136-1.736 56.456 14.453 16.32 39.13 18.595 56.333 5.193v3.228c-.002 1.264.5 2.477 1.395 3.37l76.162 61.278c.89.897 2.103 1.401 3.367 1.401 1.265 0 2.477-.504 3.368-1.4l5.613-5.6c1.864-1.86 1.873-4.874.02-6.745zm-115.35-62.671c-14.043 0-25.427-11.366-25.427-25.386s11.384-25.386 25.426-25.386c14.043 0 25.427 11.366 25.427 25.386.005 6.735-2.672 13.196-7.441 17.958-4.77 4.763-11.24 7.437-17.986 7.434v-.006z"/>
                <path fill="#C0BCCF" d="M119 42c-.007 4.111 1.325 8.112 3.794 11.398.25.333.509.654.78.97.145.17.296.338.45.503.076.086.154.17.235.252.63.662 1.308 1.278 2.028 1.841l.05.037c1.114.872 2.323 1.615 3.605 2.213.658.31 1.333.58 2.023.81l.254.082c.156.053.319.1.478.145l.064.02c.081.022.162.047.246.067 1.624.441 3.3.664 4.982.662.28 0 .573 0 .858-.02 1.492-.064 2.971-.306 4.406-.72h.028c.265-.079.528-.16.788-.25h.028l.237-.083c.905-.319 1.783-.708 2.627-1.163l.053-.028c.092-.05.184-.1.28-.154 1.238-.695 2.394-1.527 3.447-2.481l.092-.087c.578-.523 1.12-1.083 1.624-1.677l.058-.07c.048-.053.093-.106.137-.162.123-.145.24-.296.358-.447 5.092-6.562 5.332-15.672.595-22.494-4.738-6.822-13.357-9.776-21.282-7.294C124.398 26.35 119.003 33.694 119 42z"/>
                <path fill="url(#35l2ubmqje)" d="M125.79 47.416s4.16-.342 6.068-2.906c1.859-2.496 3.122-2.526 3.184-2.526.048-.334.082-.65.105-.946v-.041c-.076.059-.167.097-.263.112-.372.055-.7-.287-.885-.65-.144-.38-.333-.742-.565-1.078-.46-.514-1.213-.516-1.76-.907-.481-.395-.785-.956-.846-1.564-.03-.227-.041-.455-.034-.683-.009-.489.03-.977.119-1.458.146-.904.363-1.831.885-2.545.522-.713 1.543-.866 2.051-1.542 2.378-3.16 4.073-2.157 6.119-3.217.397-.243.843-.401 1.308-.462.821-.047 1.555.522 2.215 1.063.422.317.801.684 1.128 1.094.59.8.92 2.143.892 3.318.015.437-.028.874-.13 1.299-.164.629-.607.588-1.092.446 1.239 2.527.394 5.552-1.991 7.13v.286c-.002.021-.002.042 0 .063-.008.436.007.873.045 1.307.048.025 4.609 2.532 5.125 3.72.516 1.19 2.429 2.051 2.429 2.051s2.102 1.094 3.103 4.527l-.06.069c-.507.592-1.055 1.15-1.638 1.673l-.093.087c-1.061.945-2.23 1.77-3.481 2.46-.09.053-.184.105-.282.154l-.054.027c-.851.453-1.738.84-2.652 1.157l-.24.084h-.028c-.262.09-.527.17-.795.246h-.028c-1.448.412-2.941.653-4.449.717-.282.013-.564.019-.866.019-1.693.01-3.38-.203-5.015-.632-.085-.019-.167-.044-.248-.065l-.065-.02c-.161-.043-.325-.093-.483-.144l-.256-.08c-.7-.23-1.385-.5-2.051-.809-1.296-.596-2.517-1.334-3.64-2.2l-.05-.036c-.728-.561-1.413-1.173-2.048-1.832-.08-.08-.16-.164-.237-.251-.155-.164-.307-.331-.454-.5-.282-.315-.536-.635-.787-.966 1.51-5.612 2.79-5.049 2.79-5.049z"/>
                <path fill="#FDC2CC" d="M141.017 52L147 47.164s-4.008.9-3.894-5.813v-.067c0-.607.056-1.271.14-2.003 1.025-8.959-7.18-1.076-7.18-1.076.07.793.07 1.592 0 2.385v.064c-.162 2.208-.743 4.36-1.708 6.329-2.227 4.478 6.66 5.017 6.66 5.017z"/>
                <path fill="#000" d="M136.742 39.19c.978.997 1.575 2.81 3.046 2.81 1.064.002 2.105-.325 2.992-.942 0-.584.054-1.225.134-1.93.989-8.638-6.914-1.038-6.914-1.038s.847-.306.742 1.1z" opacity=".1"/>
                <circle cx="139.5" cy="36.5" r="5.5" fill="#FDC2CC"/>
                <path fill="#000" d="M145.152 30.18c-.312-.413-.672-.784-1.073-1.102-.628-.549-1.325-1.126-2.106-1.075-.442.062-.866.22-1.245.467-1.945 1.075-3.558.06-5.82 3.255-.482.683-1.451.843-1.95 1.56-.5.718-.7 1.66-.842 2.577-.118.62-.146 1.256-.084 1.885.06.617.35 1.185.805 1.58.52.397 1.237.4 1.674.92.22.34.4.705.537 1.09.177.365.488.711.843.658.354-.054.566-.456.617-.844.022-.402 0-.805-.067-1.201-.067-.712.018-1.488.418-2.026.268-.368.67-.588.937-.962.638-.903.348-2.419 1.049-3.257.417-.449 1.031-.628 1.61-.47.563.169 1.104.413 1.61.726.704.373 1.442.671 2.202.892.639.182 1.38.621 1.596-.282.341-1.327.022-3.33-.71-4.39z" opacity=".1"/>
                <path fill="#865A61" d="M145.152 29.18c-.312-.413-.672-.784-1.073-1.102-.628-.549-1.325-1.126-2.106-1.075-.442.062-.866.22-1.245.467-1.945 1.075-3.558.06-5.82 3.255-.482.683-1.451.843-1.95 1.56-.5.718-.7 1.66-.842 2.577-.118.62-.146 1.256-.084 1.885.06.617.35 1.185.805 1.58.52.397 1.237.4 1.674.92.22.34.4.705.537 1.09.177.365.488.711.843.658.354-.054.566-.456.617-.844.022-.402 0-.805-.067-1.201-.067-.712.018-1.488.418-2.026.268-.368.67-.588.937-.962.638-.903.348-2.419 1.049-3.257.417-.449 1.031-.628 1.61-.47.563.169 1.104.413 1.61.726.704.373 1.442.671 2.202.892.639.182 1.38.621 1.596-.282.341-1.327.022-3.33-.71-4.39z"/>
                <path fill="#000" d="M132.636 55.34l-.119 4.037c1.729.415 3.512.625 5.304.623.297 0 .61 0 .913-.018 1.589-.06 3.163-.289 4.691-.679h.03c.282-.074.562-.15.839-.234h.03l.252-.079c.963-.3 1.898-.665 2.796-1.094l.057-.026.297-.145-.46-5.44.734-3.732-4.022-2.422c-.225.288-.478.559-.755.81-.397.366-.862.67-1.375.9-2.885 1.256-6.169-.742-7.802-1.978l-.372-.292c-.422-.34-.663-.571-.663-.571L131 47.745l1.636 7.595z" opacity=".1"/>
                <path fill="#53526B" d="M132.636 56.34l-.119 4.037c1.729.415 3.512.625 5.304.623.297 0 .61 0 .913-.018 1.589-.06 3.163-.289 4.691-.679h.03c.282-.074.562-.15.839-.234h.03l.252-.079c.963-.3 1.898-.665 2.796-1.094l.057-.026.297-.145-.46-5.44.734-3.732-4.022-2.422c-.225.288-.478.559-.755.81-.397.366-.862.67-1.375.9-2.885 1.256-6.169-.742-7.802-1.978l-.372-.292c-.422-.34-.663-.571-.663-.571L131 48.745l1.636 7.595z"/>
                <path fill="#555388" d="M122 53.038c.276.349 3.074 3.145 3.873 3.735l.056.038c1.235.914 2.576 1.692 3.997 2.319.73.323 1.48.607 2.244.848l.282.085c.173.056.353.106.53.153l.07.02c.09.023.18.05.274.07 1.8.463 3.658.696 5.524.694.31 0 .636 0 .952-.02.241-3.736.31-6.733-.068-7.503-.227-.445-.483-.877-.766-1.294-1.53-2.324-4.338-5.819-4.186-6.26.06-.217.102-.437.127-.66.164-1.153.328-3.263.328-3.263-.068 0-1.456.032-3.498 2.66-2.095 2.7-6.665 3.06-6.665 3.06s-1.398-.586-3.074 5.318zM144.217 56.185s.203 1.738.47 3.815h.027l.234-.089c.89-.336 1.754-.746 2.585-1.227l.052-.03c.091-.053.182-.106.275-.162 1.22-.734 2.358-1.613 3.394-2.62l.09-.092c.569-.552 1.102-1.143 1.598-1.77l.058-.074c-.982-3.656-3.025-4.807-3.025-4.807s-1.859-.909-2.368-2.178c-.508-1.269-5-3.951-5-3.951v.02c0 .228-.07 2.308-.178 4.4-.069 1.36-.154 2.727-.253 3.595-.021.281-.07.56-.143.832-.35.894 2.184 4.338 2.184 4.338z"/>
            </g>
        </g>
    </g>
</svg>
